<svg width="24" height="24" viewBox="0 0 24 24" fill="none" xmlns="http://www.w3.org/2000/svg">
<path d="M9.75 2.25C13.8838 2.25 17.25 5.61621 17.25 9.75C17.25 11.5459 16.6201 13.1924 15.5625 14.4844L21.5391 20.4609L20.4609 21.5391L14.4844 15.5625C13.1924 16.6201 11.5459 17.25 9.75 17.25C5.61621 17.25 2.25 13.8838 2.25 9.75C2.25 5.61621 5.61621 2.25 9.75 2.25ZM9.75 3.75C6.42773 3.75 3.75 6.42773 3.75 9.75C3.75 13.0723 6.42773 15.75 9.75 15.75C13.0723 15.75 15.75 13.0723 15.75 9.75C15.75 6.42773 13.0723 3.75 9.75 3.75Z" fill="#76777A"/>
</svg>
