<svg width="24" height="25" viewBox="0 0 24 25" fill="none" xmlns="http://www.w3.org/2000/svg">
<path d="M9.75 2.36377C13.8838 2.36377 17.25 5.72998 17.25 9.86377C17.25 11.6597 16.6201 13.3062 15.5625 14.5981L21.5391 20.5747L20.4609 21.6528L14.4844 15.6763C13.1924 16.7339 11.5459 17.3638 9.75 17.3638C5.61621 17.3638 2.25 13.9976 2.25 9.86377C2.25 5.72998 5.61621 2.36377 9.75 2.36377ZM9.75 3.86377C6.42773 3.86377 3.75 6.5415 3.75 9.86377C3.75 13.186 6.42773 15.8638 9.75 15.8638C13.0723 15.8638 15.75 13.186 15.75 9.86377C15.75 6.5415 13.0723 3.86377 9.75 3.86377Z" fill="white"/>
</svg>
