<svg width="24" height="24" viewBox="0 0 24 24" fill="none" xmlns="http://www.w3.org/2000/svg">
<path d="M4.5 6.43889H12.1127C12.3421 7.48222 13.2747 8.26549 14.387 8.26549C15.4992 8.26549 16.4318 7.48225 16.6613 6.43889H19.5C19.7761 6.43889 20 6.21523 20 5.93937C20 5.66351 19.7761 5.43986 19.5 5.43986H16.661C16.4312 4.39705 15.4972 3.61328 14.387 3.61328C13.2761 3.61328 12.3426 4.39693 12.1128 5.43986H4.5C4.22387 5.43986 4 5.66351 4 5.93937C4 6.21523 4.22387 6.43889 4.5 6.43889ZM13.0587 5.94068C13.0587 5.9389 13.0587 5.93709 13.0587 5.93531C13.0609 5.2058 13.6567 4.61234 14.387 4.61234C15.1162 4.61234 15.7121 5.20499 15.7152 5.93416L15.7153 5.94149C15.7142 6.67226 15.1187 7.26649 14.387 7.26649C13.6555 7.26649 13.0603 6.67285 13.0586 5.94252L13.0587 5.94068ZM19.5 16.7876H16.661C16.4311 15.7449 15.4972 14.9611 14.387 14.9611C13.2761 14.9611 12.3426 15.7447 12.1128 16.7876H4.5C4.22387 16.7876 4 17.0113 4 17.2872C4 17.563 4.22387 17.7867 4.5 17.7867H12.1127C12.3421 18.83 13.2747 19.6133 14.387 19.6133C15.4992 19.6133 16.4318 18.83 16.6613 17.7867H19.5C19.7761 17.7867 20 17.563 20 17.2872C20 17.0113 19.7761 16.7876 19.5 16.7876ZM14.387 18.6142C13.6555 18.6142 13.0603 18.0206 13.0586 17.2903L13.0587 17.2885C13.0587 17.2867 13.0587 17.2849 13.0587 17.2831C13.0609 16.5536 13.6567 15.9601 14.387 15.9601C15.1162 15.9601 15.7121 16.5527 15.7152 17.2819L15.7153 17.2892C15.7143 18.0201 15.1188 18.6142 14.387 18.6142ZM19.5 11.1138H11.8873C11.6579 10.0704 10.7253 9.28719 9.61303 9.28719C8.50078 9.28719 7.56816 10.0704 7.33872 11.1138H4.5C4.22387 11.1138 4 11.3374 4 11.6133C4 11.8892 4.22387 12.1128 4.5 12.1128H7.33897C7.56888 13.1556 8.50275 13.9394 9.61303 13.9394C10.7239 13.9394 11.6574 13.1557 11.8872 12.1128H19.5C19.7761 12.1128 20 11.8892 20 11.6133C20 11.3374 19.7761 11.1138 19.5 11.1138ZM10.9413 11.612C10.9413 11.6138 10.9413 11.6156 10.9413 11.6173C10.9391 12.3469 10.3433 12.9403 9.61303 12.9403C8.88381 12.9403 8.28794 12.3477 8.28478 11.6185L8.28469 11.6112C8.28578 10.8804 8.88125 10.2862 9.61303 10.2862C10.3445 10.2862 10.9397 10.8798 10.9414 11.6102L10.9413 11.612Z" fill="#46474A"/>
</svg>
