<svg width="18" height="23" viewBox="0 0 18 23" fill="none" xmlns="http://www.w3.org/2000/svg">
<path d="M15.5218 3.53557H13.5444V2.65096C13.5444 2.36475 13.2322 2.23467 12.946 2.23467H11.4109C11.0467 1.19393 10.136 0.67356 9.09529 0.67356C8.06601 0.634864 7.1298 1.26599 6.77965 2.23467H5.27058C4.98437 2.23467 4.69817 2.36475 4.69817 2.65096V3.53557H2.72072C1.5489 3.54807 0.590236 4.47248 0.535156 5.64305V20.5516C0.535156 21.6964 1.5759 22.529 2.72072 22.529H15.5218C16.6666 22.529 17.7074 21.6964 17.7074 20.5516V5.6431C17.6523 4.47248 16.6936 3.54807 15.5218 3.53557ZM5.73886 3.27541H7.16989C7.41969 3.24493 7.62034 3.05489 7.66426 2.80708C7.81835 2.13606 8.40705 1.65439 9.09529 1.63626C9.77717 1.65693 10.357 2.1401 10.5003 2.80708C10.5469 3.06346 10.7608 3.25594 11.0206 3.27541H12.5037V5.35689H5.73886V3.27541ZM16.6666 20.5517C16.6666 21.1241 16.0942 21.4883 15.5218 21.4883H2.72072C2.14831 21.4883 1.5759 21.1241 1.5759 20.5517V5.6431C1.62898 5.04728 2.12261 4.58727 2.72072 4.57636H4.69812V5.90331C4.72561 6.19484 4.9781 6.41292 5.27053 6.39768H12.946C13.2438 6.41397 13.5042 6.19888 13.5444 5.90331V4.57631H15.5218C16.1198 4.58727 16.6135 5.04723 16.6666 5.64305V20.5517H16.6666Z" fill="#141414"/>
<path d="M7.11752 12.3038C6.92235 12.0981 6.59835 12.0865 6.38899 12.2778L4.72379 13.8649L4.0213 13.1364C3.82613 12.9307 3.50212 12.9191 3.29276 13.1104C3.09122 13.3216 3.09122 13.6538 3.29276 13.8649L4.3595 14.9577C4.45183 15.0611 4.58519 15.1183 4.72374 15.1139C4.86099 15.1119 4.99192 15.0558 5.08799 14.9577L7.11743 13.0324C7.31862 12.8478 7.33207 12.5351 7.14746 12.3339C7.13799 12.3234 7.12798 12.3134 7.11752 12.3038Z" fill="#141414"/>
<path d="M14.5857 13.4229H8.60142C8.31402 13.4229 8.08105 13.6558 8.08105 13.9432C8.08105 14.2306 8.31402 14.4636 8.60142 14.4636H14.5857C14.8731 14.4636 15.106 14.2306 15.106 13.9432C15.106 13.6558 14.8731 13.4229 14.5857 13.4229Z" fill="#141414"/>
<path d="M7.11752 8.14075C6.92235 7.93502 6.59835 7.92341 6.38899 8.11475L4.72379 9.70186L4.0213 8.97332C3.82613 8.76759 3.50212 8.75599 3.29276 8.94732C3.09122 9.15848 3.09122 9.4907 3.29276 9.70186L4.3595 10.7946C4.45183 10.898 4.58519 10.9552 4.72374 10.9508C4.86099 10.9488 4.99192 10.8927 5.08799 10.7946L7.11743 8.86928C7.31862 8.68472 7.33207 8.37197 7.14746 8.17083C7.13799 8.16032 7.12798 8.15031 7.11752 8.14075Z" fill="#141414"/>
<path d="M14.5857 9.25977H8.60142C8.31402 9.25977 8.08105 9.49273 8.08105 9.78014C8.08105 10.0675 8.31402 10.3005 8.60142 10.3005H14.5857C14.8731 10.3005 15.106 10.0675 15.106 9.78014C15.106 9.49273 14.8731 9.25977 14.5857 9.25977Z" fill="#141414"/>
<path d="M7.11752 16.4669C6.92235 16.2612 6.59835 16.2496 6.38899 16.4409L4.72379 18.028L4.0213 17.2995C3.82613 17.0937 3.50212 17.0822 3.29276 17.2735C3.09122 17.4846 3.09122 17.8169 3.29276 18.028L4.3595 19.1208C4.45183 19.2242 4.58519 19.2814 4.72374 19.2769C4.86099 19.275 4.99192 19.2189 5.08799 19.1208L7.11743 17.1954C7.31862 17.0109 7.33207 16.6981 7.14746 16.497C7.13799 16.4865 7.12798 16.4765 7.11752 16.4669Z" fill="#141414"/>
<path d="M14.5857 17.5854H8.60142C8.31402 17.5854 8.08105 17.8184 8.08105 18.1058C8.08105 18.3932 8.31402 18.6262 8.60142 18.6262H14.5857C14.8731 18.6262 15.106 18.3932 15.106 18.1058C15.106 17.8184 14.8731 17.5854 14.5857 17.5854Z" fill="#141414"/>
</svg>
