<svg width="16" height="17" viewBox="0 0 16 17" fill="none" xmlns="http://www.w3.org/2000/svg">
<g clip-path="url(#clip0_51835_913)">
<path d="M11.8 0.113281H4.6C3.72 0.113281 3 0.833281 3 1.71328V14.5133C3 15.3933 3.72 16.1133 4.6 16.1133H11.8C12.68 16.1133 13.4 15.3933 13.4 14.5133V1.71328C13.4 0.833281 12.68 0.113281 11.8 0.113281ZM8.6 14.5133H7.8C7.4 14.5133 7 14.1933 7 13.7133C7 13.3133 7.4 12.9133 7.8 12.9133H8.6C9.08 12.9133 9.4 13.3133 9.4 13.7133C9.4 14.1933 9.08 14.5133 8.6 14.5133ZM11.8 11.3133H4.6V1.71328H11.8V11.3133Z" fill="#46474A"/>
</g>
<defs>
<clipPath id="clip0_51835_913">
<rect width="16" height="16" fill="white" transform="translate(0 0.5)"/>
</clipPath>
</defs>
</svg>
