<?xml version="1.0" ?><svg xmlns="http://www.w3.org/2000/svg" xmlns:xlink="http://www.w3.org/1999/xlink" version="1.1" id="Layer_1" viewBox="0 0 500 500" style="enable-background:new 0 0 500 500;" xml:space="preserve"><style type="text/css">
	.st0{display:none;}
	.st1{display:inline;fill:#515150;}
	.st2{display:none;fill:#515150;}
	.st3{fill:#515150;}
</style><g class="st0"><path class="st1" d="M105.31,250c2.55,0,5.11-0.97,7.06-2.92l14.97-14.97c3.9-3.9,3.9-10.22,0-14.11c-3.9-3.9-10.22-3.9-14.11,0   l-14.97,14.97c-3.9,3.9-3.9,10.22,0,14.11C100.2,249.03,102.75,250,105.31,250z"/><path class="st1" d="M125.26,180.15c2.55,0,5.11-0.97,7.06-2.92l14.97-14.97c3.9-3.9,3.9-10.22,0-14.11c-3.9-3.9-10.22-3.9-14.11,0   l-14.97,14.97c-3.9,3.9-3.9,10.22,0,14.11C120.16,179.17,122.71,180.15,125.26,180.15z"/><path class="st1" d="M200.11,180.15c2.55,0,5.11-0.97,7.06-2.92l14.97-14.97c3.9-3.9,3.9-10.22,0-14.11c-3.9-3.9-10.22-3.9-14.11,0   l-14.97,14.97c-3.9,3.9-3.9,10.22,0,14.11C195,179.17,197.55,180.15,200.11,180.15z"/><path class="st1" d="M279.94,180.15c2.55,0,5.11-0.97,7.06-2.92l14.97-14.97c3.9-3.9,3.9-10.22,0-14.11c-3.9-3.9-10.22-3.9-14.11,0   l-14.97,14.97c-3.9,3.9-3.9,10.22,0,14.11C274.83,179.17,277.38,180.15,279.94,180.15z"/><path class="st1" d="M371.81,177.22l14.97-14.97c3.9-3.9,3.9-10.22,0-14.11c-3.9-3.9-10.22-3.9-14.11,0l-14.97,14.97   c-3.9,3.9-3.9,10.22,0,14.11c1.95,1.95,4.5,2.92,7.06,2.92S369.86,179.17,371.81,177.22z"/><path class="st1" d="M195.12,250c2.55,0,5.11-0.97,7.06-2.92l14.97-14.97c3.9-3.9,3.9-10.22,0-14.11c-3.9-3.9-10.22-3.9-14.11,0   l-14.97,14.97c-3.9,3.9-3.9,10.22,0,14.11C190.01,249.03,192.56,250,195.12,250z"/><path class="st1" d="M292.84,218l-14.97,14.97c-3.9,3.9-3.9,10.22,0,14.11c1.95,1.95,4.5,2.92,7.06,2.92s5.11-0.97,7.06-2.92   l14.97-14.97c3.9-3.9,3.9-10.22,0-14.11C303.05,214.1,296.74,214.1,292.84,218z"/><path class="st1" d="M382.65,218l-14.97,14.97c-3.9,3.9-3.9,10.22,0,14.11c1.95,1.95,4.5,2.92,7.06,2.92s5.11-0.97,7.06-2.92   l14.97-14.97c3.9-3.9,3.9-10.22,0-14.11C392.86,214.1,386.55,214.1,382.65,218z"/><path class="st1" d="M487.64,277.52l-53.89-152.27c-4.22-11.93-15.56-19.95-28.22-19.95H85.3c-13.18,0-24.99,8.83-28.71,21.47   L11.9,278.36l-0.08,0.28c-0.87,3.31-1.31,6.73-1.31,10.16v65.98c0,22.01,17.91,39.92,39.92,39.92h399.16   c22.01,0,39.92-17.91,39.92-39.92v-65.24C489.49,285.46,488.87,281.41,487.64,277.52z M469.54,354.78c0,11-8.95,19.96-19.96,19.96   H50.42c-11,0-19.96-8.95-19.96-19.96V288.8c0-1.67,0.21-3.33,0.62-4.95l44.64-151.43c1.24-4.21,5.18-7.16,9.57-7.16h320.23   c4.22,0,8,2.67,9.41,6.65l53.71,151.76c0.58,1.9,0.88,3.87,0.88,5.86V354.78z"/><path class="st1" d="M319.85,274.95H60.4c-5.51,0-9.98,4.47-9.98,9.98s4.47,9.98,9.98,9.98h259.45c5.51,0,9.98-4.47,9.98-9.98   S325.36,274.95,319.85,274.95z"/><path class="st1" d="M439.6,274.95h-69.85c-5.51,0-9.98,4.47-9.98,9.98s4.47,9.98,9.98,9.98h69.85c5.51,0,9.98-4.47,9.98-9.98   S445.11,274.95,439.6,274.95z"/></g><g class="st0"><path class="st1" d="M278.4,344.83c0-0.01,0-0.02,0-0.03l0-19.96c0-5.51-4.47-9.98-9.98-9.98c-5.51,0-9.98,4.47-9.98,9.98l0,19.92   c0,0.01,0,0.02,0,0.04c0,17.01,1.06,30.15,1.91,40.7c1.97,24.42,2.96,36.67-9.89,64.94c-2.28,5.02-0.06,10.93,4.96,13.21   c1.34,0.61,2.74,0.9,4.12,0.9c3.79,0,7.42-2.17,9.09-5.85c14.99-32.97,13.64-49.61,11.61-74.8   C279.38,373.17,278.4,361.02,278.4,344.83z"/><path class="st1" d="M459.87,383.89c-0.87-10.72-1.85-22.88-1.85-39.07c0-0.01,0-0.01,0-0.02V95.33   c0-33.01-26.86-59.87-59.87-59.87H98.78c-33.01,0-59.87,26.86-59.87,59.87v254.46c0,19.26,15.67,34.93,34.93,34.93   s34.93-15.67,34.93-34.93l0-229.51c0-14.97-3.91-24.4-13.5-32.55c-4.2-3.57-10.5-3.06-14.07,1.14c-3.57,4.2-3.06,10.5,1.14,14.07   c3.9,3.32,6.46,6.32,6.46,17.34l0,229.51c0,8.25-6.71,14.97-14.97,14.97s-14.97-6.71-14.97-14.97V95.33   c0-22.01,17.91-39.92,39.92-39.92s39.92,17.91,39.92,39.92v239.49h-9.98c-5.51,0-9.98,4.47-9.98,9.98c0,5.51,4.47,9.98,9.98,9.98   h10.1c0.3,12.3,1.11,22.33,1.79,30.72c1.97,24.42,2.96,36.67-9.89,64.94c-2.28,5.02-0.06,10.93,4.96,13.21   c1.34,0.61,2.74,0.9,4.12,0.9c3.79,0,7.42-2.17,9.09-5.85c14.99-32.97,13.64-49.61,11.61-74.8c-0.68-8.4-1.43-17.7-1.72-29.12   h39.91c0.3,12.3,1.11,22.33,1.79,30.72c1.97,24.42,2.96,36.67-9.89,64.94c-2.28,5.02-0.06,10.93,4.96,13.21   c1.34,0.61,2.74,0.9,4.12,0.9c3.79,0,7.42-2.17,9.09-5.85c14.99-32.97,13.64-49.61,11.61-74.8c-0.68-8.4-1.43-17.7-1.72-29.12   h19.83c5.51,0,9.98-4.47,9.98-9.98c0-5.51-4.47-9.98-9.98-9.98h-19.96l0-39.92h99.79l0,39.92h-19.96c-5.51,0-9.98,4.47-9.98,9.98   c0,5.51,4.47,9.98,9.98,9.98h20.08c0.3,12.3,1.11,22.33,1.79,30.72c1.97,24.42,2.96,36.67-9.89,64.94   c-2.28,5.02-0.06,10.93,4.96,13.21c1.34,0.61,2.74,0.9,4.12,0.9c3.79,0,7.42-2.17,9.09-5.85c14.99-32.97,13.64-49.61,11.61-74.8   c-0.68-8.4-1.43-17.7-1.72-29.12h39.91c0.3,12.3,1.11,22.33,1.79,30.72c1.97,24.42,2.96,36.67-9.89,64.94   c-2.28,5.02-0.06,10.93,4.96,13.21c1.34,0.61,2.74,0.9,4.12,0.9c3.79,0,7.42-2.17,9.09-5.85c14.99-32.97,13.64-49.61,11.61-74.8   c-0.68-8.4-1.43-17.7-1.72-29.12h19.83c5.51,0,9.98-4.47,9.98-9.98c0-5.51-4.47-9.98-9.98-9.98h-19.96l0-39.92h39.92v49.87   c0,0.01,0,0.02,0,0.02c0,17.01,1.06,30.15,1.91,40.7c1.97,24.42,2.96,36.67-9.89,64.94c-2.28,5.02-0.06,10.93,4.96,13.21   c1.34,0.61,2.74,0.9,4.12,0.9c3.79,0,7.42-2.17,9.09-5.85C463.24,425.72,461.9,409.08,459.87,383.89z M398.15,55.41   c22.01,0,39.92,17.91,39.92,39.92v9.98h-39.92l0-19.96c0-5.51-4.47-9.98-9.98-9.98s-9.98,4.47-9.98,9.98l0,19.96h-39.92V85.35   c0-5.51-4.47-9.98-9.98-9.98c-5.51,0-9.98,4.47-9.98,9.98v19.96h-99.79l0-19.96c0-5.51-4.47-9.98-9.98-9.98   c-5.51,0-9.98,4.47-9.98,9.98l0,19.96h-19.96c-5.51,0-9.98,4.47-9.98,9.98c0,5.51,4.47,9.98,9.98,9.98h19.96l0,39.92h-39.92V95.33   c0-15.32-5.79-29.31-15.29-39.92H398.15z M198.57,334.82h-39.92V185.14h39.92l0,89.81h-19.96c-5.51,0-9.98,4.47-9.98,9.98   s4.47,9.98,9.98,9.98h19.96L198.57,334.82z M218.53,274.95l0-89.81h19.96c5.51,0,9.98-4.47,9.98-9.98s-4.47-9.98-9.98-9.98h-19.96   l0-39.92h99.79v19.96c0,5.51,4.47,9.98,9.98,9.98c5.51,0,9.98-4.47,9.98-9.98v-19.96h39.92l0,39.92H278.4   c-5.51,0-9.98,4.47-9.98,9.98s4.47,9.98,9.98,9.98h99.79l0,89.81h-39.92l0-69.85c0-5.51-4.47-9.98-9.98-9.98   c-5.51,0-9.98,4.47-9.98,9.98l0,69.85H218.53z M378.19,334.82h-39.92l0-39.92h39.92L378.19,334.82z M398.15,274.95l0-89.81h9.98   c5.51,0,9.98-4.47,9.98-9.98s-4.47-9.98-9.98-9.98h-9.98l0-39.92h39.92v149.68H398.15z"/></g><g class="st0"><rect x="170.17" y="35.45" class="st1" width="19.96" height="119.75"/><rect x="240.02" y="35.45" class="st1" width="19.96" height="49.89"/><rect x="240.02" y="145.22" class="st1" width="19.96" height="79.83"/><rect x="309.87" y="35.45" class="st1" width="19.96" height="119.75"/><rect x="210.08" y="105.31" class="st1" width="79.83" height="19.96"/><rect x="269.96" y="175.16" class="st1" width="89.81" height="19.96"/><rect x="100.32" y="35.45" class="st1" width="19.96" height="49.89"/><rect x="100.32" y="414.65" class="st1" width="19.96" height="49.89"/><rect x="240.02" y="414.65" class="st1" width="19.96" height="49.89"/><rect x="379.73" y="414.65" class="st1" width="19.96" height="49.89"/><rect x="100.32" y="145.22" class="st1" width="19.96" height="79.83"/><rect x="40.44" y="105.31" class="st1" width="109.77" height="19.96"/><rect x="140.23" y="175.16" class="st1" width="79.83" height="19.96"/><rect x="379.73" y="35.45" class="st1" width="19.96" height="49.89"/><rect x="379.73" y="145.22" class="st1" width="19.96" height="79.83"/><rect x="349.79" y="105.31" class="st1" width="109.77" height="19.96"/><rect x="170.17" y="215.07" class="st1" width="19.96" height="79.83"/><rect x="309.87" y="215.07" class="st1" width="19.96" height="89.81"/><rect x="210.08" y="245.01" class="st1" width="79.83" height="19.96"/><rect x="40.44" y="245.01" class="st1" width="109.77" height="19.96"/><rect x="349.79" y="245.01" class="st1" width="89.81" height="19.96"/><rect x="240.02" y="284.93" class="st1" width="19.96" height="69.85"/><rect x="279.94" y="314.86" class="st1" width="79.83" height="19.96"/><rect x="100.32" y="284.93" class="st1" width="19.96" height="69.85"/><rect x="140.23" y="314.86" class="st1" width="79.83" height="19.96"/><rect x="379.73" y="284.93" class="st1" width="19.96" height="69.85"/><rect x="170.17" y="354.78" class="st1" width="19.96" height="109.77"/><rect x="309.87" y="354.78" class="st1" width="19.96" height="109.77"/><rect x="210.08" y="374.74" class="st1" width="79.83" height="19.96"/><rect x="40.44" y="374.74" class="st1" width="109.77" height="19.96"/><rect x="349.79" y="374.74" class="st1" width="109.77" height="19.96"/><rect x="40.44" y="175.16" class="st1" width="39.92" height="19.96"/><rect x="40.44" y="314.86" class="st1" width="39.92" height="19.96"/><rect x="419.64" y="175.16" class="st1" width="39.92" height="19.96"/><rect x="419.64" y="314.86" class="st1" width="39.92" height="19.96"/></g><path class="st2" d="M404.67,40.44H95.33c-27.51,0-49.89,22.38-49.89,49.89v319.32c0,27.51,22.38,49.89,49.89,49.89h309.35  c27.51,0,49.89-22.38,49.89-49.89V250c0-5.51-4.47-9.98-9.98-9.98s-9.98,4.47-9.98,9.98v159.66c0,16.51-13.43,29.94-29.94,29.94  H95.33c-16.51,0-29.94-13.43-29.94-29.94V90.34c0-16.51,13.43-29.94,29.94-29.94h309.35c16.51,0,29.94,13.43,29.94,29.94v19.33  c0,0.32-0.01,0.65-0.01,0.97c-0.18,11.86-9.59,38.14-24.84,54.78c-52.33,57.1-169.97,74.53-171.15,74.7  c-5.18,0.74-8.92,5.36-8.54,10.59c0.37,5.22,4.72,9.27,9.95,9.27c14.97,0,28.96,5.92,39.39,16.67  c10.42,10.74,15.92,24.92,15.47,39.91c-1,33.18-20.92,51.94-56.23,53.13c-1.2,0.02-2.39,0.06-3.61,0.06H125.26  c-14.68,0-33.27,8.38-39.4,26.78c-1.74,5.23,1.08,10.88,6.31,12.62c5.23,1.74,10.88-1.08,12.62-6.31c3.21-9.64,14-13.14,20.47-13.14  h109.77c75.69,0,117.15-42.41,147.74-83.89c17.69-24,71.4-96.86,71.79-195.07c0-0.15,0.01-0.3,0.01-0.45V90.34  C454.57,62.83,432.18,40.44,404.67,40.44z M366.7,293.97c-16.35,22.18-34.93,43.42-59.96,57.74c4.91-9.85,7.69-21.44,8.09-34.56  c0.61-20.44-6.88-39.76-21.09-54.41c-4.03-4.15-8.45-7.77-13.18-10.84c41.64-10.34,106.43-32.1,143.92-73  c0.31-0.33,0.61-0.68,0.91-1.02C409.87,235.43,379.04,277.25,366.7,293.97z"/><g class="st0"><path class="st1" d="M473.91,68.31c-0.62-3.69-3.24-6.72-6.8-7.86c-3.56-1.14-7.46-0.2-10.1,2.45   c-57.41,57.41-107.53,65.73-151.75,73.07c-7.89,1.31-15.34,2.55-22.78,4.03c-42.18,8.44-71.56,26-87.3,52.22   c-11.62,19.35-15.52,43.04-11.69,70.68c-1.8-2.37-3.47-4.98-4.89-7.81c-1.66-3.31-5.01-5.43-8.71-5.51   c-3.67-0.05-7.14,1.89-8.94,5.13c-9.58,17.24-14.31,33.78-18.48,48.38c-7.23,25.31-12.46,43.59-37.52,57.51   c-4.82,2.68-6.55,8.75-3.88,13.57c2.68,4.82,8.75,6.55,13.57,3.88c32.28-17.93,39.44-42.97,47.02-69.47   c2.72-9.5,5.49-19.22,9.56-29.17c10.94,12.41,23.23,18.67,23.92,19.01c3.56,1.78,7.84,1.27,10.89-1.29   c3.05-2.56,4.28-6.69,3.13-10.5c-10.48-34.94-9.43-63.24,3.11-84.13c12.73-21.19,37.67-35.64,74.11-42.92   c7.11-1.42,14.41-2.63,22.13-3.92c40.69-6.76,90.41-15.01,145.55-62.76c-3.47,21.59-16.5,46.48-38.95,74.33   c-29.46,36.54-75.45,78.34-136.68,124.26C157.7,382.05,89.28,403.16,33.33,412.49c-5.44,0.91-9.11,6.05-8.2,11.48   c0.81,4.88,5.04,8.34,9.83,8.34c0.55,0,1.1-0.05,1.65-0.14c58.44-9.74,129.64-31.59,253.82-124.73   C424.02,207.26,484.03,129.04,473.91,68.31z"/><path class="st1" d="M452.71,209.06c-5.45-0.73-10.49,3.09-11.23,8.55c-0.24,1.78-0.47,3.61-0.71,5.53   c-1.17,9.36-2.62,21.01-7.25,38.53c-18.84,71.24-75.22,93.08-92.05,98.08c-25.27,7.5-70.94,2.93-92.89,0.73   c-6.88-0.69-11.42-1.14-14.04-1.14c-5.51,0-9.98,4.47-9.98,9.98c0,16.36,5.54,30.26,15.9,40.49c-31.5,11.99-75.62,10.73-95.06,9.42   c-5.51-0.36-10.26,3.79-10.63,9.29c-0.37,5.5,3.79,10.26,9.29,10.63c7.35,0.49,16.2,0.88,25.89,0.88   c30.42,0,69.05-3.82,95.14-20.15c3.06-1.91,4.85-5.33,4.67-8.94c-0.17-3.6-2.28-6.83-5.5-8.45c-9.94-4.97-16.06-12.29-18.51-22.23   c0.28,0.03,0.56,0.05,0.84,0.08c24.99,2.5,71.52,7.17,100.56-1.46c51.65-15.33,91.15-57.24,105.66-112.1   c4.98-18.82,6.52-31.21,7.76-41.17c0.23-1.85,0.45-3.61,0.68-5.32C462,214.83,458.18,209.8,452.71,209.06z"/></g><g class="st0"><path class="st1" d="M392.81,168.11c-12.42,0-24.58,2.38-35.94,6.97c0.01-0.71,0.02-1.42,0.02-2.13   c0-59.31-47.95-107.57-106.89-107.57c-39.05,0-74.45,21.19-93.22,54.91c-14.96-9.07-31.88-13.82-49.59-13.82   c-53.31,0-96.68,43.65-96.68,97.29c0,16.7,4.27,33.03,12.41,47.58c-8.13,17.15-12.41,36.1-12.41,55.15   c0,70.64,57.1,128.11,127.29,128.11c32.51,0,63.73-12.65,87.28-35.03c21.1,22.39,50.05,35.03,81.03,35.03   c24.48,0,47.73-7.81,67.24-22.58c17.16-12.99,30.43-30.99,37.84-51.16c45.07-8.73,78.31-48.69,78.31-95.46   C489.49,211.76,446.12,168.11,392.81,168.11z M402.4,342.07c-3.91,0.49-7.16,3.23-8.3,7c-11.91,39.23-47.27,65.58-88,65.58   c-28.57,0-55.06-13.12-72.68-36.01c-1.82-2.36-4.6-3.79-7.58-3.89c-0.11,0-0.22,0-0.33,0c-2.86,0-5.59,1.23-7.49,3.39   c-20.42,23.2-49.66,36.51-80.24,36.51c-59.18,0-107.33-48.52-107.33-108.15c0-17.71,4.37-35.3,12.64-50.89   c1.69-3.18,1.53-7.02-0.41-10.05c-8-12.52-12.23-26.97-12.23-41.78c0-42.64,34.42-77.34,76.73-77.34   c17.27,0,33.61,5.71,47.27,16.51c2.45,1.94,5.66,2.61,8.69,1.84c3.02-0.78,5.51-2.93,6.71-5.81   c13.62-32.58,45.07-53.63,80.14-53.63c47.93,0,86.93,39.3,86.93,87.61c0,5.96-0.6,11.91-1.77,17.69   c-0.81,3.96,0.86,8.02,4.22,10.27c3.36,2.25,7.74,2.26,11.11,0.01c12.58-8.41,27.22-12.86,42.33-12.86   c42.31,0,76.73,34.69,76.73,77.34C469.54,304.29,440.67,337.25,402.4,342.07z"/><path class="st1" d="M285.7,209.2c-24.48,0-46.45,10.94-61.38,28.2c-22.05-24.3-53.52-38.48-86.53-38.48   c-5.51,0-9.98,4.47-9.98,9.98c0,5.51,4.47,9.98,9.98,9.98c29.06,0,56.68,13.27,75.06,35.76c-5.45,10.98-8.53,23.35-8.53,36.44   c0,5.51,4.47,9.98,9.98,9.98c5.51,0,9.98-4.47,9.98-9.98c0-34.15,27.56-61.93,61.43-61.93c5.51,0,9.98-4.47,9.98-9.98   C295.68,213.67,291.21,209.2,285.7,209.2z"/></g><g class="st0"><path class="st1" d="M334.82,160.2c-38.52,0-69.85,31.34-69.85,69.85s31.34,69.85,69.85,69.85s69.85-31.34,69.85-69.85   S373.34,160.2,334.82,160.2z M334.82,279.94c-27.51,0-49.89-22.38-49.89-49.89s22.38-49.89,49.89-49.89   c27.51,0,49.89,22.38,49.89,49.89S362.33,279.94,334.82,279.94z"/><path class="st1" d="M334.82,150.22c5.51,0,9.98-4.47,9.98-9.98V90.34c0-5.51-4.47-9.98-9.98-9.98s-9.98,4.47-9.98,9.98v49.89   C324.84,145.75,329.31,150.22,334.82,150.22z"/><path class="st1" d="M281.27,157.26c1.85,3.2,5.2,4.99,8.65,4.99c1.69,0,3.41-0.43,4.98-1.34c4.77-2.76,6.41-8.86,3.65-13.63   l-24.95-43.21c-2.76-4.77-8.86-6.41-13.63-3.65c-4.77,2.76-6.41,8.86-3.65,13.63L281.27,157.26z"/><path class="st1" d="M208.84,168.84l43.21,24.95c1.57,0.91,3.29,1.34,4.98,1.34c3.45,0,6.8-1.79,8.65-4.99   c2.76-4.77,1.12-10.88-3.65-13.63l-43.21-24.95c-4.77-2.75-10.88-1.12-13.63,3.65C202.43,159.98,204.07,166.08,208.84,168.84z"/><path class="st1" d="M254.99,230.05c0-5.51-4.47-9.98-9.98-9.98h-49.89c-5.51,0-9.98,4.47-9.98,9.98s4.47,9.98,9.98,9.98h49.89   C250.52,240.03,254.99,235.56,254.99,230.05z"/><path class="st1" d="M265.69,269.96c-2.76-4.77-8.86-6.41-13.63-3.65l-43.21,24.95c-4.77,2.76-6.41,8.86-3.65,13.63   c1.85,3.2,5.2,4.99,8.65,4.99c1.69,0,3.41-0.43,4.98-1.34l43.21-24.95C266.81,280.84,268.44,274.74,265.69,269.96z"/><path class="st1" d="M294.91,299.18c-4.77-2.75-10.88-1.12-13.63,3.65l-24.95,43.21c-2.76,4.77-1.12,10.88,3.65,13.63   c1.57,0.91,3.29,1.34,4.98,1.34c3.45,0,6.8-1.79,8.65-4.99l24.95-43.21C301.31,308.04,299.68,301.94,294.91,299.18z"/><path class="st1" d="M334.82,309.88c-5.51,0-9.98,4.47-9.98,9.98v49.89c0,5.51,4.47,9.98,9.98,9.98s9.98-4.47,9.98-9.98v-49.89   C344.8,314.35,340.33,309.88,334.82,309.88z"/><path class="st1" d="M388.37,302.84c-2.76-4.77-8.86-6.41-13.63-3.65c-4.77,2.76-6.41,8.86-3.65,13.63l24.95,43.21   c1.85,3.2,5.2,4.99,8.65,4.99c1.69,0,3.41-0.43,4.98-1.34c4.77-2.76,6.41-8.86,3.65-13.63L388.37,302.84z"/><path class="st1" d="M460.8,291.26l-43.21-24.95c-4.77-2.75-10.88-1.12-13.63,3.65c-2.76,4.77-1.12,10.88,3.65,13.63l43.21,24.95   c1.57,0.91,3.29,1.34,4.98,1.34c3.45,0,6.8-1.79,8.65-4.99C467.21,300.12,465.57,294.02,460.8,291.26z"/><path class="st1" d="M474.53,220.07h-49.89c-5.51,0-9.98,4.47-9.98,9.98s4.47,9.98,9.98,9.98h49.89c5.51,0,9.98-4.47,9.98-9.98   S480.04,220.07,474.53,220.07z"/><path class="st1" d="M403.96,190.13c1.85,3.2,5.2,4.99,8.65,4.99c1.69,0,3.41-0.43,4.98-1.34l43.21-24.95   c4.77-2.76,6.41-8.86,3.65-13.63c-2.76-4.77-8.86-6.41-13.63-3.65l-43.21,24.95C402.84,179.26,401.2,185.36,403.96,190.13z"/><path class="st1" d="M374.74,160.91c1.57,0.91,3.29,1.34,4.98,1.34c3.45,0,6.8-1.79,8.65-4.99l24.95-43.21   c2.76-4.77,1.12-10.88-3.65-13.63c-4.77-2.75-10.88-1.12-13.63,3.65l-24.95,43.21C368.33,152.05,369.96,158.16,374.74,160.91z"/><path class="st1" d="M155.2,352.38V85.35c0-19.26-15.67-34.93-34.93-34.93S85.35,66.1,85.35,85.35v267.02   c-15.19,12.46-22.48,31.77-19.18,51.65c3.65,22,20.69,39.82,42.41,44.35c3.87,0.81,7.77,1.2,11.62,1.2   c12.61,0,24.82-4.25,34.68-12.27c12.89-10.48,20.28-26.01,20.28-42.6C175.16,378.21,167.79,362.76,155.2,352.38z M142.29,421.82   c-8.33,6.77-18.86,9.26-29.65,7.01c-13.5-2.81-24.52-14.36-26.79-28.07c-2.3-13.89,3.45-27.33,15.03-35.08   c2.77-1.85,4.43-4.96,4.43-8.29V85.35c0-8.25,6.71-14.97,14.97-14.97s14.97,6.71,14.97,14.97v272.02c0,3.33,1.66,6.44,4.43,8.29   c9.73,6.51,15.53,17.37,15.53,29.03C155.2,405.26,150.49,415.15,142.29,421.82z"/><path class="st1" d="M65.39,120.28H45.43c-5.51,0-9.98,4.47-9.98,9.98c0,5.51,4.47,9.98,9.98,9.98h19.96   c5.51,0,9.98-4.47,9.98-9.98C75.37,124.75,70.9,120.28,65.39,120.28z"/><path class="st1" d="M65.39,160.2H45.43c-5.51,0-9.98,4.47-9.98,9.98s4.47,9.98,9.98,9.98h19.96c5.51,0,9.98-4.47,9.98-9.98   S70.9,160.2,65.39,160.2z"/><path class="st1" d="M25.47,220.07h39.92c5.51,0,9.98-4.47,9.98-9.98c0-5.51-4.47-9.98-9.98-9.98H25.47   c-5.51,0-9.98,4.47-9.98,9.98C15.5,215.6,19.96,220.07,25.47,220.07z"/><path class="st1" d="M25.47,100.32h39.92c5.51,0,9.98-4.47,9.98-9.98c0-5.51-4.47-9.98-9.98-9.98H25.47   c-5.51,0-9.98,4.47-9.98,9.98C15.5,95.86,19.96,100.32,25.47,100.32z"/><path class="st1" d="M65.39,240.03H45.43c-5.51,0-9.98,4.47-9.98,9.98s4.47,9.98,9.98,9.98h19.96c5.51,0,9.98-4.47,9.98-9.98   S70.9,240.03,65.39,240.03z"/><path class="st1" d="M65.39,279.94H45.43c-5.51,0-9.98,4.47-9.98,9.98s4.47,9.98,9.98,9.98h19.96c5.51,0,9.98-4.47,9.98-9.98   S70.9,279.94,65.39,279.94z"/><path class="st1" d="M75.37,329.84c0-5.51-4.47-9.98-9.98-9.98H25.47c-5.51,0-9.98,4.47-9.98,9.98s4.47,9.98,9.98,9.98h39.92   C70.9,339.82,75.37,335.35,75.37,329.84z"/></g><g class="st0"><path class="st1" d="M165.18,352.38V85.35c0-19.26-15.67-34.93-34.93-34.93S95.33,66.1,95.33,85.35v267.02   c-15.19,12.46-22.48,31.77-19.18,51.65c3.65,22,20.69,39.82,42.41,44.35c3.87,0.81,7.77,1.2,11.62,1.2   c12.61,0,24.82-4.25,34.68-12.27c12.89-10.48,20.28-26.01,20.28-42.6C185.14,378.21,177.77,362.76,165.18,352.38z M152.27,421.82   c-8.33,6.77-18.86,9.26-29.65,7.01c-13.5-2.81-24.52-14.36-26.79-28.07c-2.3-13.89,3.45-27.33,15.03-35.08   c2.77-1.85,4.43-4.96,4.43-8.29V85.35c0-8.25,6.71-14.97,14.97-14.97s14.97,6.71,14.97,14.97v272.02c0,3.33,1.66,6.44,4.43,8.29   c9.73,6.51,15.53,17.37,15.53,29.03C165.18,405.26,160.47,415.15,152.27,421.82z"/><path class="st1" d="M324.84,155.85v34.3c0,5.51,4.47,9.98,9.98,9.98s9.98-4.47,9.98-9.98v-33.58l38.23-38.23   c3.9-3.9,3.9-10.22,0-14.11c-3.9-3.9-10.22-3.9-14.11,0l-24.12,24.12V70.48c0-5.51-4.47-9.98-9.98-9.98s-9.98,4.47-9.98,9.98v57.14   l-23.4-23.4c-3.9-3.9-10.22-3.9-14.11,0c-3.9,3.9-3.9,10.22,0,14.11L324.84,155.85z"/><path class="st1" d="M344.8,284.29v-34.3c0-5.51-4.47-9.98-9.98-9.98s-9.98,4.47-9.98,9.98v33.58l-38.23,38.23   c-3.9,3.9-3.9,10.22,0,14.11c3.9,3.9,10.22,3.9,14.11,0l24.12-24.12v57.86c0,5.51,4.47,9.98,9.98,9.98s9.98-4.47,9.98-9.98v-57.14   l23.4,23.4c1.95,1.95,4.5,2.92,7.06,2.92s5.11-0.97,7.06-2.92c3.9-3.9,3.9-10.22,0-14.11L344.8,284.29z"/><path class="st1" d="M200.44,153.6l49.63,28.81l-32.27,8.65c-5.32,1.43-8.48,6.9-7.06,12.22c1.19,4.46,5.23,7.4,9.63,7.4   c0.86,0,1.72-0.11,2.59-0.34l51.46-13.79l29.52,17.14c1.58,0.91,3.3,1.35,5,1.35c3.44,0,6.79-1.78,8.64-4.97   c2.77-4.77,1.15-10.87-3.62-13.64l-29.2-16.95l-13.94-52.01c-1.43-5.32-6.9-8.48-12.22-7.06c-5.32,1.43-8.48,6.9-7.06,12.22   l8.75,32.65l-49.83-28.93c-4.77-2.77-10.87-1.14-13.64,3.62C194.06,144.72,195.68,150.83,200.44,153.6z"/><path class="st1" d="M313.86,243.61c4.78-2.74,6.43-8.84,3.68-13.62c-2.74-4.78-8.84-6.43-13.62-3.68l-29.29,16.82l-52.02-13.94   c-5.32-1.42-10.79,1.73-12.22,7.06c-1.43,5.32,1.73,10.8,7.06,12.22l32.65,8.75l-49.97,28.69c-4.78,2.74-6.43,8.84-3.68,13.62   c1.84,3.21,5.21,5.01,8.66,5.01c1.68,0,3.39-0.43,4.96-1.33l49.77-28.58l-8.65,32.27c-1.43,5.32,1.73,10.8,7.06,12.22   c0.86,0.23,1.73,0.34,2.59,0.34c4.41,0,8.44-2.94,9.63-7.4l13.79-51.46L313.86,243.61z"/><path class="st1" d="M469.2,286.54l-49.63-28.81l32.27-8.65c5.32-1.43,8.48-6.9,7.06-12.22c-1.43-5.32-6.9-8.48-12.22-7.06   l-51.46,13.79l-29.52-17.14c-4.77-2.77-10.87-1.15-13.64,3.62c-2.77,4.77-1.15,10.87,3.62,13.64l29.2,16.95l13.94,52.01   c1.19,4.46,5.23,7.4,9.63,7.4c0.86,0,1.72-0.11,2.59-0.34c5.32-1.43,8.48-6.9,7.06-12.22l-8.75-32.65l49.83,28.93   c1.58,0.91,3.3,1.35,5,1.35c3.44,0,6.79-1.78,8.64-4.97C475.58,295.42,473.96,289.31,469.2,286.54z"/><path class="st1" d="M355.78,196.53c-4.78,2.74-6.43,8.84-3.68,13.62c1.84,3.21,5.21,5.01,8.66,5.01c1.68,0,3.39-0.43,4.96-1.33   l29.29-16.82l52.02,13.94c0.86,0.23,1.73,0.34,2.59,0.34c4.41,0,8.44-2.94,9.63-7.4c1.43-5.32-1.73-10.8-7.06-12.22l-32.65-8.75   l49.97-28.69c4.78-2.74,6.43-8.84,3.68-13.62c-2.74-4.78-8.84-6.43-13.62-3.68l-49.77,28.58l8.65-32.27   c1.43-5.32-1.73-10.8-7.06-12.22c-5.32-1.42-10.79,1.73-12.22,7.06l-13.79,51.46L355.78,196.53z"/><path class="st1" d="M75.37,120.28H55.41c-5.51,0-9.98,4.47-9.98,9.98c0,5.51,4.47,9.98,9.98,9.98h19.96   c5.51,0,9.98-4.47,9.98-9.98C85.35,124.75,80.88,120.28,75.37,120.28z"/><path class="st1" d="M75.37,160.2H55.41c-5.51,0-9.98,4.47-9.98,9.98s4.47,9.98,9.98,9.98h19.96c5.51,0,9.98-4.47,9.98-9.98   S80.88,160.2,75.37,160.2z"/><path class="st1" d="M35.45,220.07h39.92c5.51,0,9.98-4.47,9.98-9.98c0-5.51-4.47-9.98-9.98-9.98H35.45   c-5.51,0-9.98,4.47-9.98,9.98C25.47,215.6,29.94,220.07,35.45,220.07z"/><path class="st1" d="M35.45,100.32h39.92c5.51,0,9.98-4.47,9.98-9.98c0-5.51-4.47-9.98-9.98-9.98H35.45   c-5.51,0-9.98,4.47-9.98,9.98C25.47,95.86,29.94,100.32,35.45,100.32z"/><path class="st1" d="M75.37,240.03H55.41c-5.51,0-9.98,4.47-9.98,9.98s4.47,9.98,9.98,9.98h19.96c5.51,0,9.98-4.47,9.98-9.98   S80.88,240.03,75.37,240.03z"/><path class="st1" d="M75.37,279.94H55.41c-5.51,0-9.98,4.47-9.98,9.98s4.47,9.98,9.98,9.98h19.96c5.51,0,9.98-4.47,9.98-9.98   S80.88,279.94,75.37,279.94z"/><path class="st1" d="M85.35,329.84c0-5.51-4.47-9.98-9.98-9.98H35.45c-5.51,0-9.98,4.47-9.98,9.98s4.47,9.98,9.98,9.98h39.92   C80.88,339.82,85.35,335.35,85.35,329.84z"/></g><g class="st0"><path class="st1" d="M474.06,326.46l-83.55,54.49c13.74-49.95,42.26-155.44,48.14-177.21l46.3-30.2c4.62-3.01,5.92-9.19,2.91-13.81   c-3.01-4.62-9.19-5.92-13.81-2.91l-48.8,31.83c-0.45,0.25-0.88,0.53-1.29,0.84l-124.91,81.46c-14.01,9.14-30.98,13.97-49.06,13.97   c-18.08,0-35.05-4.83-49.06-13.97L76.02,189.48c-0.4-0.31-0.83-0.59-1.28-0.83l-48.81-31.83c-4.62-3.01-10.8-1.71-13.81,2.91   c-3.01,4.62-1.71,10.8,2.91,13.81l46.3,30.2c5.88,21.77,34.4,127.26,48.14,177.21l-83.55-54.49c-4.62-3.01-10.8-1.71-13.81,2.91   c-3.01,4.62-1.71,10.8,2.91,13.81l102.7,66.98c13,40.54,50.27,43.13,66.39,43.3l5.91,3.86c17.26,11.26,38,17.21,59.96,17.21   c21.96,0,42.7-5.95,59.96-17.21l5.91-3.86c16.12-0.16,53.39-2.76,66.39-43.3l102.7-66.98c4.62-3.01,5.92-9.19,2.91-13.81   C484.86,324.75,478.68,323.45,474.06,326.46z M135.88,401.21c-0.03-0.11-0.07-0.22-0.1-0.34c-0.01-0.03-0.02-0.06-0.03-0.1   c-0.01-0.02-0.01-0.04-0.02-0.06c-2.17-6.71-30.19-109.95-49.3-180.61l35.76,23.32c6.41,23.56,40.02,147.07,51.6,189.32   C152.57,430.06,140.97,420.2,135.88,401.21z M250,454.57c-18.08,0-35.05-4.83-49.06-13.97l-5.23-3.41   c-6.2-22.47-34.98-128.15-48.37-177.36l42.69,27.84c17.26,11.26,38,17.21,59.96,17.21c21.96,0,42.7-5.95,59.96-17.21l42.69-27.84   c-13.39,49.2-42.17,154.89-48.37,177.36l-5.23,3.41C285.05,449.74,268.08,454.57,250,454.57z M326.21,432.74   c11.58-42.25,45.18-165.75,51.6-189.32l35.76-23.32c-19.11,70.67-47.13,173.9-49.3,180.61c-0.01,0.02-0.01,0.04-0.02,0.06   c-0.01,0.03-0.02,0.06-0.03,0.09c-0.03,0.11-0.07,0.23-0.1,0.34C359.03,420.2,347.43,430.06,326.21,432.74z"/><path class="st1" d="M250,215.07h19.96c5.51,0,9.98-4.47,9.98-9.98s-4.47-9.98-9.98-9.98H250c-5.51,0-9.98,4.47-9.98,9.98   S244.49,215.07,250,215.07z"/><path class="st1" d="M319.85,155.2c0,5.51,4.47,9.98,9.98,9.98h19.96c5.51,0,9.98-4.47,9.98-9.98c0-5.51-4.47-9.98-9.98-9.98   h-19.96C324.32,145.22,319.85,149.69,319.85,155.2z"/><path class="st1" d="M419.64,105.31h19.96c5.51,0,9.98-4.47,9.98-9.98c0-5.51-4.47-9.98-9.98-9.98h-19.96   c-5.51,0-9.98,4.47-9.98,9.98C409.66,100.84,414.13,105.31,419.64,105.31z"/><path class="st1" d="M130.25,155.2h19.96c5.51,0,9.98-4.47,9.98-9.98c0-5.51-4.47-9.98-9.98-9.98h-19.96   c-5.51,0-9.98,4.47-9.98,9.98C120.27,150.73,124.74,155.2,130.25,155.2z"/><path class="st1" d="M210.08,105.31h19.96c5.51,0,9.98-4.47,9.98-9.98c0-5.51-4.47-9.98-9.98-9.98h-19.96   c-5.51,0-9.98,4.47-9.98,9.98C200.11,100.84,204.57,105.31,210.08,105.31z"/><path class="st1" d="M299.89,45.43h19.96c5.51,0,9.98-4.47,9.98-9.98s-4.47-9.98-9.98-9.98h-19.96c-5.51,0-9.98,4.47-9.98,9.98   S294.38,45.43,299.89,45.43z"/></g><path class="st2" d="M485.41,189.49c-7.77-21.95-24.81-38.1-44.56-42.32c-13.37-4.03-232.2-69.91-251.02-75.25  c-13.89-3.94-28.72-0.3-41.76,10.23c-11.39,9.2-20.36,23.06-24.64,38.02C113.3,155.67,91.63,182.97,59,201.3  c-42.49,23.88-52.1,61.78-47.41,86.98c4.22,22.69,17.24,31.42,30.77,37.51l228.17,100.02c0.03,0.01,0.06,0.02,0.09,0.03  c3.25,1.6,6.79,2.74,10.66,3.37c0.1,0.02,0.2,0.03,0.31,0.04c1.94,0.25,3.83,0.37,5.69,0.37c22.52,0,38.95-17.57,51.2-30.67  c3.11-3.33,10.15-10.7,19.07-20.03c33.67-35.23,96.33-100.81,118.22-127.24C489.65,234.91,493.26,211.66,485.41,189.49z   M460.39,238.96c-21.44,25.88-83.79,91.13-117.28,126.18c-9.31,9.74-16.04,16.78-19.22,20.19c-13.79,14.75-25.48,25.88-39.6,24.16  c-1.58-0.26-3.2-0.69-4.79-1.46c-0.18-0.1-0.36-0.19-0.55-0.28c-4.69-2.52-9.09-8.24-11.64-21.96  c-3.97-21.34,4.82-53.79,42.64-75.05c28.28-15.9,47.52-36.52,62.39-66.86c2.42-4.95,0.38-10.93-4.57-13.35  c-4.95-2.43-10.93-0.38-13.35,4.57c-12.97,26.49-29.7,44.45-54.24,58.24c-47.01,26.42-57.65,68.28-52.48,96.1  c0.33,1.75,0.7,3.43,1.11,5.07L50.46,307.55c-10.85-4.89-16.8-9.77-19.25-22.92c-3.48-18.72,4.27-47.22,37.57-65.93  c36.85-20.71,62.39-52.89,73.85-93.05c5.79-20.29,24.37-39.47,41.75-34.53c14.47,4.1,153.17,45.8,217.98,65.31  c-10.55,7.19-20.25,17.94-27.74,31.41c-2.68,4.82-0.95,10.89,3.87,13.57c4.82,2.68,10.89,0.95,13.57-3.87  c11.74-21.1,29.95-33.82,44.28-30.93c12.95,2.6,24.83,14.2,30.26,29.54C472.17,211.87,469.9,227.47,460.39,238.96z"/><g class="st0"><path class="st1" d="M448.14,359.96c22.95-19.36,22.47-48.87,22.09-71.28c-0.05-2.97-0.1-5.89-0.1-8.74v-39.92   c0-80.33-45.21-151.8-77.32-176.9c-29.01-22.68-91.08-22.68-136.4-22.68c-39.39,0-97.77,5.58-128.36,15.91   C107.81,63.2,86.67,92.95,72.5,116.7c-16.64,27.9-30.83,59.68-36.15,80.99c-4.58,18.31-14.1,56.4,3.62,80.23   c4.18,5.63,9.55,10.06,16.03,13.3c-22.83,17.3-24.93,40.72-24.93,65.22c0,28.13,2.58,54.97,33.77,74.33   c31.63,19.63,90.65,28.78,185.77,28.78c113.65,0,165.85-2.99,194.96-21.52c17.06-10.86,24.39-32.32,18.25-53.4   C460.84,374.44,455.33,365.99,448.14,359.96z M434.84,421.2c-26.89,17.12-90.41,18.4-184.24,18.4   c-199.58,0-199.58-40.39-199.58-83.16c0-24.12,0-45.38,35.87-59.33c0.23-0.08,0.46-0.17,0.69-0.26   c27.81-10.61,76.78-16.91,163.02-16.91h95.66l17.03,17.03c1.95,1.95,4.5,2.92,7.06,2.92s5.11-0.97,7.06-2.92   c3.9-3.9,3.9-10.22,0-14.11l-12.9-12.9l2.92-2.92c3.9-3.9,3.9-10.22,0-14.11c-3.9-3.9-10.22-3.9-14.11,0l-7.06,7.06H250.6   c-81.6,0-135,5.5-168.46,17.63c-12.45-0.9-21.02-4.7-26.15-11.6c-12.08-16.24-4.1-48.15-0.27-63.48   c10.61-42.42,55.47-119.4,78.73-127.26c28.57-9.65,84.17-14.86,121.98-14.86c37.59,0,100.51,0,124.11,18.44   c25.15,19.66,61.07,74.96,68.32,138.57c-6.4-5.76-14.71-11.07-25.48-15.85c-5.03-2.23-10.93,0.04-13.17,5.07   c-2.24,5.04,0.04,10.93,5.07,13.17c33.22,14.74,34.9,32.45,34.9,60.13c0,2.96,0.05,5.99,0.1,9.08   c0.43,25.01,0.81,48.65-23.46,61.28c-2.15-0.32-4.34-0.5-6.58-0.5H164.92l-17.03-17.03c-3.9-3.9-10.22-3.9-14.11,0   c-3.9,3.9-3.9,10.22,0,14.11l12.9,12.9l-12.9,12.9c-3.9,3.9-3.9,10.22,0,14.11c1.95,1.95,4.5,2.92,7.06,2.92s5.11-0.97,7.06-2.92   l17.03-17.03h255.32c13.61,0,21.66,11.03,24.41,20.47C447.45,399.85,446.57,413.74,434.84,421.2z"/><path class="st1" d="M385.82,190.1c0.99-5.42-2.61-10.62-8.03-11.6c-30.82-5.6-70.61-8.33-121.64-8.33   c-63.9,0-123.61,9.1-163.81,24.98c-5.13,2.02-7.64,7.82-5.62,12.95c1.55,3.92,5.31,6.32,9.28,6.32c1.22,0,2.46-0.22,3.66-0.7   c37.4-14.77,95.9-23.58,156.48-23.58c49.13,0,88.86,2.69,118.07,8C379.64,199.12,384.84,195.52,385.82,190.1z"/></g><g class="st0"><path class="st1" d="M480.34,154.9c-11.66-13.5-32.26-15.69-50.26-6.17c-38.63-31.26-82.22-52.34-129.67-62.69   c-39.26-8.56-74.88-8.72-105.05-7.37c-11.23-16.29-31.4-23.69-48.5-16.96c-17.13,6.74-26.11,25.37-22.47,44.47   c-38.68,28.87-80.1,87.25-88.62,142.76c-16.52,7.66-26.36,23.54-23.9,39.79c2.91,19.18,22.05,32.75,44.08,32.09   c26.86,28.95,63.12,53.01,105.22,69.76c35.21,14.01,73.45,22.18,106.2,22.79c7.5,16.65,23.34,27.39,39.46,27.39   c3.35,0,6.72-0.46,10.02-1.44c16.83-4.95,27.32-21.67,26.4-40.55c53.32-30.4,123.16-107.83,127.74-185.79   c10.09-8.63,16.42-20.37,17.39-32.32C489.17,170.96,486.32,161.81,480.34,154.9z M468.49,179.04c-0.55,6.75-4.59,13.87-10.79,19.05   c-0.2,0.17-0.63,0.45-1.04,0.72c-0.41,0.27-0.81,0.54-1.21,0.83c-2.58,1.83-4.14,4.76-4.21,7.92   c-1.67,73.94-73.96,151.48-123.29,176.81c-3.99,2.05-6.13,6.52-5.21,10.91c2.41,11.55-2.55,22.25-11.53,24.9   c-10.24,3.01-22.44-5.09-26.72-17.72l-0.04-0.18c-0.1-0.51-0.21-1.01-0.35-1.52c-1.21-4.39-5.27-7.36-9.79-7.33   c-62.35,1.02-153.42-29.39-206.82-89.57c-2.24-2.52-5.59-3.74-8.93-3.25c-0.04,0.01-0.08,0.01-0.13,0.02   c-13.08,1.72-25.36-5.07-26.85-14.89c-1.26-8.34,5.56-16.79,16.24-20.1c3.8-1.18,6.53-4.49,6.97-8.44   c5.89-53.61,49.55-113.71,86.62-138.64c3.82-2.57,5.39-7.42,3.79-11.74c-4.16-11.27-0.23-22.92,8.96-26.54   c9.48-3.73,21.23,2.02,26.75,13.1c1.77,3.55,5.49,5.72,9.45,5.51c69.89-3.62,152.17,1.84,232.44,69.72   c3.51,2.97,8.6,3.15,12.32,0.44c10.69-7.79,23.92-8.28,30.12-1.11l0,0C468.38,171.58,468.74,175.98,468.49,179.04z"/><path class="st1" d="M385.15,186.05c-30.68,17.88-87.9,75.4-111.12,132.61c-2.07,5.11,0.39,10.93,5.49,13   c1.23,0.5,2.5,0.73,3.75,0.73c3.94,0,7.68-2.35,9.25-6.23c20.76-51.15,73.79-106.04,102.68-122.87c4.76-2.78,6.37-8.89,3.6-13.65   C396.02,184.89,389.91,183.28,385.15,186.05z"/></g><g class="st0"><path class="st1" d="M444.59,454.57H145.22c-44.02,0-79.83-35.81-79.83-79.83v-39.98c18.22,24.26,47.22,39.98,79.83,39.98   c5.51,0,9.98-4.47,9.98-9.98c0-5.51-4.47-9.98-9.98-9.98c-44.02,0-79.83-35.81-79.83-79.83V35.45c0-5.51-4.47-9.98-9.98-9.98   s-9.98,4.47-9.98,9.98v339.28c0,55.02,44.76,99.79,99.79,99.79h299.37c5.51,0,9.98-4.47,9.98-9.98S450.1,454.57,444.59,454.57z"/><path class="st1" d="M186.39,364.76c0,5.51,4.47,9.98,9.98,9.98h248.22c5.51,0,9.98-4.47,9.98-9.98c0-5.51-4.47-9.98-9.98-9.98   H196.37C190.85,354.78,186.39,359.25,186.39,364.76z"/><path class="st1" d="M153.27,227.51c-4.44,29.71-15.41,37.02-33.54,49.11c-4.59,3.06-5.83,9.25-2.77,13.84   c1.92,2.88,5.09,4.44,8.31,4.44c1.9,0,3.82-0.54,5.53-1.68c12.96-8.64,25.26-16.87,33.37-32.75c6.41,8.07,15.6,14.13,27.57,18.09   c8.64,2.86,18.12,4.42,27.81,5.29c-5.66,4.23-10.78,9.06-16.1,14.39c-3.9,3.9-3.9,10.22,0,14.11c1.95,1.95,4.5,2.92,7.06,2.92   s5.11-0.97,7.06-2.92c17.52-17.52,29.75-27.43,77.35-27.43h7.01c-6.61,5.6-11.9,12.4-15.94,20.48c-2.46,4.93-0.47,10.92,4.46,13.39   c1.43,0.72,2.96,1.06,4.45,1.06c3.66,0,7.19-2.02,8.93-5.52c6.85-13.69,21.09-29.41,70.91-29.41h29.94c5.51,0,9.98-4.47,9.98-9.98   c0-5.51-4.47-9.98-9.98-9.98h-29.94c-2.85,0-5.63,0.05-8.34,0.15c-0.53-0.09-1.08-0.15-1.64-0.15h-69.85h-39.92   c-46.58,0-79.75-2.65-81.73-36.4c2.16-15.81,2.71-36.15,1.9-63.54v-49.75V75.37c0-5.51-4.47-9.98-9.98-9.98   c-5.51,0-9.98,4.47-9.98,9.98v39.92c0,43.55-16.67,71.22-32.36,75.14c-5.35,1.34-8.6,6.75-7.26,12.1c1.13,4.53,5.2,7.56,9.67,7.56   c0.8,0,1.62-0.1,2.43-0.3c9.84-2.46,19.7-9.37,27.88-20.7c-0.05,15.21-0.73,27.24-2.08,36.94   C153.38,226.51,153.3,227.01,153.27,227.51z"/></g><g class="st0"><path class="st1" d="M414.65,130.25h-139.7c-0.33,0-0.67,0.02-1,0.05c-0.24,0.02-0.48,0.07-0.71,0.11   c-0.08,0.01-0.17,0.02-0.25,0.04c-0.28,0.06-0.56,0.13-0.84,0.21c-0.04,0.01-0.07,0.02-0.11,0.03c-0.28,0.09-0.55,0.19-0.82,0.29   c-0.03,0.01-0.07,0.02-0.1,0.04c-0.25,0.11-0.5,0.23-0.75,0.35c-0.05,0.02-0.09,0.04-0.14,0.07c-0.22,0.12-0.44,0.25-0.65,0.39   c-0.06,0.04-0.13,0.07-0.19,0.11c-0.2,0.13-0.38,0.27-0.57,0.42c-0.07,0.06-0.15,0.11-0.22,0.16c-0.22,0.18-0.42,0.37-0.62,0.56   c-0.03,0.03-0.07,0.06-0.1,0.09l-99.79,99.79c-0.04,0.04-0.07,0.08-0.11,0.12c-0.19,0.19-0.37,0.39-0.54,0.6   c-0.06,0.08-0.12,0.16-0.18,0.24c-0.14,0.18-0.28,0.36-0.41,0.55c-0.04,0.07-0.08,0.14-0.12,0.21c-0.13,0.21-0.26,0.42-0.38,0.63   c-0.03,0.05-0.05,0.1-0.07,0.15c-0.12,0.24-0.24,0.48-0.35,0.73c-0.01,0.03-0.02,0.07-0.04,0.1c-0.11,0.27-0.21,0.54-0.29,0.82   c-0.01,0.03-0.02,0.07-0.03,0.1c-0.08,0.28-0.15,0.56-0.21,0.84c-0.02,0.08-0.02,0.16-0.04,0.24c-0.04,0.24-0.08,0.48-0.11,0.73   c-0.03,0.33-0.05,0.66-0.05,1v219.54c0,5.51,4.47,9.98,9.98,9.98h239.49c5.51,0,9.98-4.47,9.98-9.98V140.23   C424.63,134.72,420.16,130.25,414.65,130.25z M264.97,164.32v65.72h-65.72L264.97,164.32z M404.67,449.58H185.14V250h89.81   c5.51,0,9.98-4.47,9.98-9.98v-89.81h119.75V449.58z"/><path class="st1" d="M432.35,76.71c0.1-0.13,0.19-0.26,0.29-0.39c0.1-0.13,0.2-0.26,0.29-0.4c0.1-0.15,0.19-0.31,0.28-0.46   c0.07-0.12,0.15-0.25,0.22-0.37c0.08-0.16,0.16-0.32,0.23-0.48c0.06-0.14,0.13-0.27,0.19-0.41c0.06-0.16,0.12-0.31,0.17-0.47   c0.05-0.15,0.11-0.3,0.16-0.45c0.05-0.16,0.08-0.32,0.12-0.48c0.04-0.15,0.08-0.31,0.11-0.46c0.04-0.19,0.06-0.38,0.09-0.57   c0.02-0.13,0.04-0.26,0.06-0.4c0.07-0.66,0.07-1.32,0-1.98c-0.01-0.13-0.04-0.26-0.06-0.4c-0.03-0.19-0.05-0.38-0.09-0.57   c-0.03-0.16-0.07-0.31-0.11-0.46c-0.04-0.16-0.08-0.32-0.12-0.48c-0.05-0.15-0.1-0.3-0.16-0.45c-0.06-0.16-0.11-0.32-0.17-0.47   c-0.06-0.14-0.13-0.27-0.19-0.41c-0.07-0.16-0.15-0.32-0.23-0.48c-0.07-0.13-0.15-0.25-0.22-0.37c-0.09-0.15-0.18-0.31-0.28-0.46   c-0.09-0.14-0.19-0.27-0.29-0.4c-0.1-0.13-0.19-0.26-0.29-0.39c-0.19-0.23-0.38-0.44-0.59-0.65c-0.02-0.03-0.05-0.05-0.07-0.08   l-29.94-29.94c-3.9-3.9-10.22-3.9-14.11,0c-3.9,3.9-3.9,10.22,0,14.11l12.9,12.9H189.27l12.9-12.9c3.9-3.9,3.9-10.22,0-14.11   c-3.9-3.9-10.22-3.9-14.11,0l-29.94,29.94c-0.03,0.03-0.05,0.05-0.07,0.08c-0.2,0.21-0.4,0.42-0.59,0.65   c-0.1,0.13-0.19,0.26-0.29,0.39c-0.1,0.13-0.2,0.26-0.29,0.4c-0.1,0.15-0.19,0.31-0.28,0.46c-0.07,0.12-0.15,0.25-0.22,0.37   c-0.08,0.16-0.16,0.32-0.23,0.48c-0.06,0.14-0.13,0.27-0.19,0.41c-0.06,0.16-0.12,0.31-0.17,0.47c-0.05,0.15-0.11,0.3-0.16,0.45   c-0.05,0.16-0.08,0.32-0.12,0.48c-0.04,0.15-0.08,0.31-0.11,0.46c-0.04,0.19-0.06,0.38-0.09,0.57c-0.02,0.13-0.04,0.26-0.06,0.4   c-0.07,0.66-0.07,1.32,0,1.98c0.01,0.13,0.04,0.26,0.06,0.4c0.03,0.19,0.05,0.38,0.09,0.57c0.03,0.16,0.07,0.31,0.11,0.46   c0.04,0.16,0.08,0.32,0.12,0.48c0.05,0.15,0.1,0.3,0.16,0.45c0.06,0.16,0.11,0.32,0.17,0.47c0.06,0.14,0.13,0.27,0.19,0.41   c0.07,0.16,0.15,0.32,0.23,0.48c0.07,0.13,0.15,0.25,0.22,0.37c0.09,0.15,0.18,0.31,0.28,0.46c0.09,0.14,0.19,0.27,0.29,0.4   c0.1,0.13,0.19,0.26,0.29,0.39c0.19,0.23,0.38,0.44,0.59,0.65c0.02,0.03,0.05,0.05,0.07,0.08l29.94,29.94   c1.95,1.95,4.5,2.92,7.06,2.92s5.11-0.97,7.06-2.92c3.9-3.9,3.9-10.22,0-14.11l-12.9-12.9h211.27l-12.9,12.9   c-3.9,3.9-3.9,10.22,0,14.11c1.95,1.95,4.5,2.92,7.06,2.92s5.11-0.97,7.06-2.92l29.94-29.94c0.03-0.03,0.05-0.05,0.07-0.08   C431.96,77.15,432.16,76.93,432.35,76.71z"/><path class="st1" d="M128.19,177.22c1.95,1.95,4.5,2.92,7.06,2.92s5.11-0.97,7.06-2.92c3.9-3.9,3.9-10.22,0-14.11l-29.94-29.94   c-0.02-0.02-0.04-0.04-0.06-0.06c-0.21-0.21-0.44-0.41-0.67-0.6c-0.12-0.1-0.24-0.18-0.36-0.27c-0.14-0.11-0.28-0.21-0.42-0.31   c-0.14-0.09-0.29-0.18-0.43-0.26c-0.13-0.08-0.27-0.17-0.41-0.24c-0.15-0.08-0.3-0.14-0.44-0.21c-0.15-0.07-0.29-0.14-0.44-0.21   c-0.14-0.06-0.29-0.11-0.43-0.16c-0.16-0.06-0.32-0.12-0.49-0.17c-0.14-0.04-0.29-0.07-0.43-0.11c-0.17-0.04-0.34-0.09-0.52-0.13   c-0.16-0.03-0.33-0.05-0.49-0.07c-0.16-0.02-0.31-0.05-0.48-0.07c-0.29-0.03-0.58-0.04-0.87-0.04c-0.04,0-0.07-0.01-0.11-0.01   c-0.04,0-0.07,0.01-0.11,0.01c-0.29,0-0.58,0.02-0.87,0.04c-0.16,0.02-0.32,0.05-0.48,0.07c-0.16,0.02-0.33,0.04-0.49,0.07   c-0.18,0.03-0.35,0.08-0.52,0.13c-0.14,0.04-0.29,0.07-0.43,0.11c-0.17,0.05-0.33,0.11-0.49,0.17c-0.14,0.05-0.29,0.1-0.43,0.16   c-0.15,0.06-0.3,0.14-0.44,0.21c-0.15,0.07-0.3,0.14-0.44,0.21c-0.14,0.07-0.27,0.16-0.41,0.24c-0.14,0.09-0.29,0.17-0.43,0.26   c-0.15,0.1-0.28,0.21-0.42,0.31c-0.12,0.09-0.24,0.17-0.36,0.27c-0.23,0.19-0.45,0.39-0.67,0.6c-0.02,0.02-0.04,0.04-0.06,0.06   l-29.94,29.94c-3.9,3.9-3.9,10.22,0,14.11c3.9,3.9,10.22,3.9,14.11,0l12.9-12.9v271.14l-12.9-12.9c-3.9-3.9-10.22-3.9-14.11,0   c-3.9,3.9-3.9,10.22,0,14.11l29.94,29.94c0.07,0.07,0.14,0.13,0.21,0.19c0.17,0.16,0.34,0.32,0.52,0.47   c0.13,0.11,0.27,0.2,0.41,0.31c0.12,0.09,0.25,0.19,0.38,0.28c0.15,0.1,0.31,0.19,0.47,0.28c0.12,0.07,0.24,0.15,0.37,0.22   c0.15,0.08,0.31,0.15,0.47,0.23c0.14,0.06,0.27,0.13,0.41,0.19c0.15,0.06,0.31,0.11,0.46,0.17c0.15,0.06,0.31,0.11,0.46,0.16   c0.15,0.05,0.31,0.08,0.46,0.12c0.16,0.04,0.32,0.09,0.49,0.12c0.18,0.03,0.35,0.06,0.53,0.08c0.15,0.02,0.29,0.05,0.44,0.06   c0.33,0.03,0.66,0.05,0.98,0.05c0.33,0,0.66-0.02,0.98-0.05c0.15-0.01,0.29-0.04,0.44-0.06c0.18-0.03,0.35-0.05,0.53-0.08   c0.17-0.03,0.33-0.08,0.49-0.12c0.15-0.04,0.31-0.07,0.46-0.12c0.16-0.05,0.31-0.11,0.46-0.16c0.15-0.05,0.31-0.11,0.46-0.17   c0.14-0.06,0.28-0.13,0.41-0.19c0.16-0.07,0.32-0.14,0.47-0.23c0.13-0.07,0.25-0.15,0.37-0.22c0.16-0.09,0.31-0.18,0.47-0.28   c0.13-0.09,0.25-0.18,0.38-0.28c0.14-0.1,0.28-0.2,0.41-0.31c0.18-0.15,0.35-0.31,0.52-0.47c0.07-0.07,0.14-0.12,0.21-0.19   l29.94-29.94c3.9-3.9,3.9-10.22,0-14.11c-3.9-3.9-10.22-3.9-14.11,0l-12.9,12.9V164.32L128.19,177.22z"/></g><g class="st0"><path class="st1" d="M83.28,219.44c1.95,1.95,4.5,2.92,7.06,2.92c2.55,0,5.11-0.97,7.06-2.92c3.9-3.9,3.9-10.22,0-14.11   L67.46,175.4c-0.23-0.23-0.48-0.46-0.74-0.67c-0.1-0.09-0.21-0.16-0.32-0.24c-0.15-0.12-0.3-0.23-0.46-0.34   c-0.13-0.09-0.27-0.17-0.41-0.25c-0.14-0.09-0.28-0.17-0.43-0.25c-0.14-0.08-0.29-0.14-0.43-0.21c-0.15-0.07-0.3-0.15-0.45-0.21   c-0.14-0.06-0.28-0.1-0.42-0.15c-0.17-0.06-0.33-0.12-0.5-0.17c-0.14-0.04-0.28-0.07-0.43-0.11c-0.17-0.04-0.34-0.09-0.52-0.13   c-0.16-0.03-0.33-0.05-0.49-0.07c-0.16-0.02-0.32-0.05-0.48-0.07c-0.29-0.03-0.58-0.04-0.87-0.04c-0.04,0-0.07-0.01-0.11-0.01   c-0.04,0-0.07,0.01-0.11,0.01c-0.29,0-0.58,0.02-0.87,0.04c-0.16,0.02-0.32,0.05-0.48,0.07c-0.16,0.02-0.33,0.04-0.49,0.07   c-0.18,0.03-0.35,0.08-0.52,0.13c-0.14,0.04-0.28,0.07-0.43,0.11c-0.17,0.05-0.33,0.11-0.5,0.17c-0.14,0.05-0.28,0.1-0.42,0.15   c-0.15,0.06-0.3,0.14-0.45,0.21c-0.14,0.07-0.29,0.13-0.43,0.21c-0.15,0.08-0.29,0.17-0.43,0.25c-0.14,0.08-0.28,0.16-0.41,0.25   c-0.16,0.11-0.31,0.22-0.46,0.34c-0.11,0.08-0.22,0.16-0.32,0.24c-0.26,0.21-0.5,0.43-0.74,0.67l-29.93,29.93   c-3.9,3.9-3.9,10.22,0,14.11c3.9,3.9,10.22,3.9,14.11,0l12.9-12.9v191.31l-12.9-12.9c-3.9-3.9-10.22-3.9-14.11,0   c-3.9,3.9-3.9,10.22,0,14.11L53.35,429c0.02,0.02,0.05,0.05,0.08,0.07c0.21,0.21,0.43,0.4,0.65,0.59c0.12,0.1,0.25,0.18,0.37,0.28   c0.14,0.1,0.27,0.21,0.42,0.31c0.14,0.1,0.29,0.18,0.44,0.27c0.13,0.08,0.26,0.16,0.4,0.24c0.15,0.08,0.3,0.15,0.45,0.22   c0.14,0.07,0.28,0.14,0.43,0.2c0.15,0.06,0.3,0.11,0.44,0.16c0.16,0.06,0.32,0.12,0.48,0.17c0.15,0.04,0.3,0.08,0.45,0.12   c0.17,0.04,0.33,0.09,0.5,0.12c0.17,0.03,0.35,0.05,0.52,0.08c0.15,0.02,0.29,0.05,0.44,0.06c0.33,0.03,0.66,0.05,0.98,0.05   c0.33,0,0.66-0.02,0.98-0.05c0.15-0.01,0.29-0.04,0.44-0.06c0.17-0.02,0.35-0.05,0.52-0.08c0.17-0.03,0.33-0.08,0.5-0.12   c0.15-0.04,0.3-0.07,0.45-0.12c0.16-0.05,0.32-0.11,0.48-0.17c0.15-0.05,0.3-0.1,0.44-0.16c0.15-0.06,0.29-0.13,0.43-0.2   c0.15-0.07,0.3-0.14,0.45-0.22c0.14-0.07,0.27-0.16,0.4-0.24c0.15-0.09,0.3-0.17,0.44-0.27c0.14-0.1,0.28-0.2,0.42-0.31   c0.12-0.09,0.25-0.18,0.37-0.28c0.23-0.19,0.44-0.38,0.65-0.59c0.02-0.02,0.05-0.04,0.08-0.07l29.94-29.94   c3.9-3.9,3.9-10.22,0-14.11c-3.9-3.9-10.22-3.9-14.11,0l-12.9,12.9V206.54L83.28,219.44z"/><path class="st1" d="M477.25,108.95c0.1-0.13,0.19-0.26,0.29-0.39c0.1-0.13,0.2-0.26,0.29-0.4c0.1-0.15,0.19-0.31,0.28-0.46   c0.07-0.12,0.15-0.25,0.22-0.37c0.08-0.16,0.16-0.32,0.23-0.48c0.06-0.14,0.13-0.27,0.19-0.41c0.06-0.16,0.12-0.31,0.17-0.47   c0.05-0.15,0.11-0.3,0.16-0.45c0.05-0.16,0.08-0.32,0.12-0.48c0.04-0.15,0.08-0.31,0.11-0.46c0.04-0.19,0.06-0.38,0.09-0.57   c0.02-0.13,0.04-0.26,0.06-0.4c0.07-0.66,0.07-1.32,0-1.98c-0.01-0.13-0.04-0.26-0.06-0.4c-0.03-0.19-0.05-0.38-0.09-0.57   c-0.03-0.16-0.07-0.31-0.11-0.46c-0.04-0.16-0.08-0.32-0.12-0.48c-0.05-0.15-0.1-0.3-0.16-0.45c-0.06-0.16-0.11-0.32-0.17-0.47   c-0.06-0.14-0.13-0.27-0.19-0.41c-0.08-0.16-0.15-0.32-0.23-0.48c-0.07-0.13-0.15-0.25-0.22-0.37c-0.09-0.15-0.18-0.31-0.28-0.46   c-0.09-0.14-0.19-0.27-0.29-0.4c-0.1-0.13-0.19-0.26-0.29-0.39c-0.19-0.23-0.38-0.44-0.59-0.65c-0.03-0.03-0.05-0.05-0.07-0.08   l-29.94-29.94c-3.9-3.9-10.22-3.9-14.11,0c-3.9,3.9-3.9,10.22,0,14.11l12.9,12.9h-291.1l12.9-12.9c3.9-3.9,3.9-10.22,0-14.11   c-3.9-3.9-10.22-3.9-14.11,0L123.2,95.56c-0.23,0.23-0.46,0.48-0.67,0.74c-0.09,0.11-0.17,0.22-0.25,0.33   c-0.11,0.15-0.23,0.29-0.33,0.45c-0.09,0.14-0.17,0.28-0.26,0.42c-0.08,0.14-0.17,0.27-0.24,0.41c-0.08,0.15-0.15,0.3-0.22,0.45   c-0.07,0.14-0.14,0.29-0.2,0.44c-0.06,0.15-0.11,0.3-0.16,0.45c-0.06,0.16-0.12,0.31-0.17,0.47c-0.05,0.15-0.08,0.31-0.12,0.46   c-0.04,0.16-0.09,0.32-0.12,0.49c-0.04,0.18-0.06,0.36-0.08,0.54c-0.02,0.14-0.05,0.28-0.06,0.42c-0.06,0.66-0.06,1.32,0,1.97   c0.01,0.14,0.04,0.28,0.06,0.42c0.03,0.18,0.05,0.36,0.08,0.54c0.03,0.17,0.08,0.33,0.12,0.49c0.04,0.15,0.07,0.31,0.12,0.46   c0.05,0.16,0.11,0.32,0.17,0.47c0.05,0.15,0.1,0.3,0.16,0.45c0.06,0.15,0.13,0.29,0.2,0.44c0.07,0.15,0.14,0.3,0.22,0.45   c0.08,0.14,0.16,0.28,0.24,0.41c0.08,0.14,0.16,0.28,0.26,0.42c0.1,0.16,0.22,0.3,0.33,0.45c0.08,0.11,0.16,0.23,0.25,0.33   c0.21,0.26,0.43,0.5,0.67,0.74l29.93,29.93c1.95,1.95,4.5,2.92,7.06,2.92c2.55,0,5.11-0.97,7.06-2.92c3.9-3.9,3.9-10.22,0-14.11   l-12.9-12.9h291.1l-12.9,12.9c-3.9,3.9-3.9,10.22,0,14.11c1.95,1.95,4.5,2.92,7.06,2.92s5.11-0.97,7.06-2.92l29.94-29.94   c0.03-0.03,0.05-0.05,0.07-0.08C476.87,109.39,477.07,109.17,477.25,108.95z"/><path class="st1" d="M466.36,175.64c-12.19-12.19-33.25-11.17-50.41,1.93c-24.76-2.55-74.9-5.11-116.06-5.11   s-91.29,2.56-116.06,5.11c-17.16-13.1-38.22-14.12-50.41-1.93c-11.78,11.78-11.11,32.34,1.08,49.25   c-2.15,17.91-4.26,49.26-4.26,77.3c0,28.05,2.1,59.4,4.26,77.3c-12.2,16.91-12.86,37.47-1.09,49.25   c12.19,12.19,33.25,11.16,50.41-1.93c24.76,2.55,74.9,5.11,116.06,5.11s91.29-2.56,116.06-5.11c9.08,6.93,19.26,10.48,28.63,10.48   c8.34,0,16.04-2.81,21.78-8.55c11.78-11.78,11.11-32.34-1.08-49.25c2.15-17.91,4.26-49.26,4.26-77.3s-2.1-59.4-4.26-77.3   C477.47,207.98,478.14,187.42,466.36,175.64z M444.97,223.4c2.24,16.17,4.61,49.28,4.61,78.8c0,29.51-2.38,62.62-4.61,78.8   c-0.39,2.81,0.44,5.66,2.28,7.83c7.8,9.19,10.05,20.78,5.01,25.82c-5.18,5.18-17.34,2.59-26.56-5.64   c-1.84-1.64-4.21-2.54-6.65-2.54c-0.39,0-0.78,0.02-1.17,0.07c-21.82,2.57-75.64,5.44-117.98,5.44s-96.16-2.87-117.98-5.44   c-2.83-0.33-5.68,0.56-7.82,2.47c-9.22,8.23-21.38,10.82-26.56,5.64c-5.04-5.04-2.8-16.62,5.01-25.82   c1.84-2.17,2.67-5.01,2.28-7.83c-2.24-16.17-4.61-49.28-4.61-78.8s2.38-62.63,4.61-78.8c0.39-2.81-0.44-5.66-2.28-7.83   c-7.81-9.19-10.05-20.78-5.01-25.82c5.18-5.17,17.34-2.59,26.55,5.64c2.13,1.9,4.98,2.8,7.82,2.47   c21.82-2.57,75.64-5.44,117.99-5.44s96.17,2.87,117.99,5.44c2.84,0.34,5.68-0.56,7.82-2.47c9.22-8.23,21.38-10.82,26.56-5.64   c5.04,5.04,2.8,16.62-5.01,25.82C445.41,217.74,444.58,220.59,444.97,223.4z"/></g><g class="st0"><path class="st1" d="M339.81,115.28h-99.79c-15.65,0-41.24,19.74-59.66,39.31c-14.99,15.93-40.13,47.55-40.13,80.43v229.51   c0,11,8.95,19.96,19.96,19.96h179.62c11,0,19.96-8.95,19.96-19.96v-329.3C359.77,124.24,350.81,115.28,339.81,115.28z    M194.9,168.28c9.18-9.75,18.1-17.35,25.63-22.79c-3.49,16.62-2.96,37.45,6.09,56.19c-7.27,2.65-18.12,3.71-28.01,4.68   c-11.51,1.13-23.36,2.3-33.4,5.78C170.81,198.21,180.98,183.06,194.9,168.28z M339.81,464.55H160.19V245.01   c0-12.59,10.57-15.87,40.36-18.79c17.69-1.73,35.99-3.53,46.53-14.07c3.36-3.36,3.89-8.63,1.25-12.59   c-15.54-23.32-9.32-53.66-3.32-64.32h94.81l0.01,329.3C339.82,464.55,339.82,464.55,339.81,464.55z"/><path class="st1" d="M183.2,128.46c1.48,0,2.98-0.33,4.39-1.02c4.95-2.43,6.99-8.41,4.56-13.36c-1.34-2.74-2.03-5.69-2.03-8.78   V55.41c0-11,8.95-19.96,19.96-19.96h79.83c11,0,19.96,8.95,19.96,19.96v39.92c0,5.51,4.47,9.98,9.98,9.98s9.98-4.47,9.98-9.98   V55.41c0-22.01-17.91-39.92-39.92-39.92h-79.83c-22.01,0-39.92,17.91-39.92,39.92v49.89c0,6.16,1.37,12.07,4.07,17.58   C175.97,126.41,179.52,128.46,183.2,128.46z"/></g><g><path class="st3" d="M429.62,115.28H150.21c-15.65,0-41.24,19.75-59.66,39.31c-14.99,15.93-40.13,47.55-40.13,80.43v229.51   c0,11,8.95,19.96,19.96,19.96h359.24c11,0,19.96-8.95,19.96-19.96v-329.3C449.58,124.24,440.62,115.28,429.62,115.28z    M105.09,168.28c9.18-9.75,18.1-17.35,25.63-22.79c-3.49,16.62-2.96,37.45,6.09,56.19c-7.27,2.65-18.12,3.71-28.01,4.68   c-11.51,1.13-23.36,2.3-33.4,5.78C81,198.21,91.17,183.06,105.09,168.28z M429.62,464.55H70.38V245.01   c0-12.59,10.57-15.87,40.36-18.79c17.69-1.73,35.99-3.53,46.53-14.07c3.36-3.36,3.88-8.63,1.25-12.59   c-15.54-23.32-9.32-53.66-3.32-64.32h274.43l0.01,329.3C429.63,464.55,429.63,464.55,429.62,464.55z"/><path class="st3" d="M269.96,105.31c5.51,0,9.98-4.47,9.98-9.98V55.41c0-11,8.95-19.96,19.96-19.96h79.83   c11,0,19.96,8.95,19.96,19.96v39.92c0,5.51,4.47,9.98,9.98,9.98s9.98-4.47,9.98-9.98V55.41c0-22.01-17.91-39.92-39.92-39.92h-79.83   c-22.01,0-39.92,17.91-39.92,39.92v39.92C259.98,100.84,264.45,105.31,269.96,105.31z"/><path class="st3" d="M93.39,128.46c1.48,0,2.98-0.33,4.39-1.02c4.95-2.43,6.99-8.41,4.56-13.36c-1.34-2.74-2.03-5.69-2.03-8.78   V55.41c0-11,8.95-19.96,19.96-19.96h79.83c11,0,19.96,8.95,19.96,19.96v39.92c0,5.51,4.47,9.98,9.98,9.98   c5.51,0,9.98-4.47,9.98-9.98V55.41c0-22.01-17.91-39.92-39.92-39.92h-79.83c-22.01,0-39.92,17.91-39.92,39.92v49.89   c0,6.16,1.37,12.08,4.07,17.58C86.16,126.41,89.71,128.46,93.39,128.46z"/></g><g class="st0"><path class="st1" d="M112.36,256.8c4.99,4.99,11.67,7.43,18.87,7.43c7.73,0,16.06-2.82,23.54-8.34c20.19,2.02,59.9,4.03,92.55,4.03   s72.37-2.01,92.55-4.03c14.45,10.66,32.07,11.25,42.41,0.91c10-10,9.7-27.19-0.22-41.43c1.7-14.55,3.34-39.32,3.34-61.51   s-1.64-46.95-3.34-61.5c9.91-14.24,10.21-31.43,0.22-41.43c-10.34-10.34-27.96-9.75-42.41,0.91c-20.19-2.02-59.89-4.03-92.55-4.03   s-72.37,2.01-92.55,4.03c-14.45-10.66-32.07-11.25-42.41-0.91c-9.99,10-9.7,27.19,0.22,41.43c-1.7,14.55-3.34,39.32-3.34,61.5   s1.64,46.95,3.34,61.51C102.66,229.61,102.36,246.81,112.36,256.8z M132.88,216.82c-1.79-12.91-3.68-39.36-3.68-62.95   c0-23.59,1.9-50.04,3.68-62.95c0.39-2.81-0.44-5.66-2.28-7.82c-6.09-7.17-7.05-15.12-4.13-18.05c1.03-1.03,2.71-1.58,4.75-1.58   c3.89,0,9.11,1.95,13.85,6.18c2.13,1.9,4.97,2.8,7.82,2.47c17.45-2.06,60.53-4.35,94.44-4.35s76.98,2.29,94.43,4.35   c2.84,0.34,5.68-0.56,7.82-2.47c7.22-6.45,15.6-7.6,18.6-4.6c2.92,2.92,1.96,10.87-4.13,18.04c-1.84,2.17-2.67,5.01-2.28,7.82   c1.79,12.91,3.68,39.37,3.68,62.95s-1.9,50.04-3.68,62.95c-0.39,2.81,0.44,5.66,2.28,7.83c6.09,7.17,7.05,15.12,4.13,18.04   c-3,3-11.38,1.85-18.6-4.6c-2.13-1.9-4.98-2.81-7.82-2.47c-17.45,2.06-60.53,4.35-94.43,4.35s-76.98-2.29-94.44-4.35   c-2.83-0.33-5.68,0.56-7.82,2.47c-7.22,6.45-15.6,7.6-18.6,4.6c-2.92-2.92-1.96-10.87,4.13-18.04   C132.44,222.48,133.27,219.64,132.88,216.82z"/><path class="st1" d="M283.92,302.28c-4.85,2.91-9.33,6.4-13.33,10.38C257.5,325.67,250,343.72,250,362.18v15.66   c0,5.51,4.47,9.98,9.98,9.98c5.51,0,9.98-4.47,9.98-9.98v-15.66c0-13.18,5.36-26.08,14.71-35.37c2.86-2.84,6.06-5.33,9.52-7.41   c4.73-2.84,6.26-8.96,3.42-13.69C294.77,300.98,288.64,299.45,283.92,302.28z"/><path class="st1" d="M479.51,268.63v-9.59c0-16.4-10.28-31.37-25.59-37.26l-45.67-17.57c-5.14-1.98-10.92,0.59-12.9,5.73   c-1.98,5.14,0.59,10.92,5.73,12.9l45.67,17.57c7.65,2.94,12.79,10.43,12.79,18.63v9.59c0,7.99-4.75,15.19-12.1,18.34l-62.98,26.99   c-0.12,0.05-0.23,0.1-0.34,0.15c-27.79,13.17-50.7,26.24-65.03,34.87c-4.72,2.85-6.24,8.98-3.39,13.7   c1.87,3.11,5.17,4.83,8.55,4.83c1.75,0,3.53-0.46,5.14-1.43c13.9-8.38,36.12-21.06,63.1-33.85l53.66-23l7.06,7.31   c4.66,5.01,6.32,8.09,6.32,11.74v9.98c0,10.64-4.35,18.62-12.26,22.45l-137.68,66.81c-19.75,9.59-42.28,11.61-63.42,5.68   L69.6,383.76c-17.17-4.81-29.15-20.61-29.15-38.44v-38.69c0-13.94,7.43-27.06,19.38-34.23l25.67-15.4   c4.73-2.84,6.26-8.96,3.42-13.69c-2.83-4.73-8.96-6.26-13.69-3.42l-25.67,15.4c-17.93,10.76-29.07,30.43-29.07,51.34v38.69   c0,26.74,17.98,50.45,43.73,57.66l176.6,49.45c9.72,2.72,19.68,4.07,29.61,4.07c16.47,0,32.85-3.71,47.91-11.02l137.68-66.81   c14.94-7.25,23.5-21.98,23.5-40.41v-9.98c0-11.3-5.93-19.18-11.73-25.41c-0.04-0.04-0.08-0.08-0.12-0.13l-2.98-3.09   C473.91,292.2,479.51,280.89,479.51,268.63z"/></g><g class="st0"><path class="st1" d="M434.37,115.28H65.63c-28.26,0-45.15,30.44-45.15,59.87c0,21.33,11.63,45.7,22.88,56.95   c1.87,1.87,4.41,2.92,7.06,2.92v239.49c0,5.51,4.47,9.98,9.98,9.98h379.2c5.51,0,9.98-4.47,9.98-9.98V235.03   c2.55,0,5.11-0.97,7.06-2.92c11.25-11.25,22.88-35.62,22.88-56.95C479.51,145.73,462.63,115.28,434.37,115.28z M70.38,464.55   V225.07c0.07-0.01,0.13-0.01,0.17-0.02h358.89c0.04,0,0.1,0.01,0.17,0.02v239.48H70.38z M447.94,211.06   c-9.29-5.76-17.21-5.97-18.32-5.97H70.38c-1.11,0-9.03,0.21-18.32,5.97c-6.2-9.64-11.62-24.09-11.62-35.91   c0-16.73,8.75-39.92,25.19-39.92h368.73c16.44,0,25.19,23.18,25.19,39.92C459.56,186.97,454.14,201.43,447.94,211.06z"/><path class="st1" d="M269.96,105.31c5.51,0,9.98-4.47,9.98-9.98V55.41c0-11,8.95-19.96,19.96-19.96h79.83   c11,0,19.96,8.95,19.96,19.96v39.92c0,5.51,4.47,9.98,9.98,9.98s9.98-4.47,9.98-9.98V55.41c0-22.01-17.91-39.92-39.92-39.92h-79.83   c-22.01,0-39.92,17.91-39.92,39.92v39.92C259.98,100.84,264.45,105.31,269.96,105.31z"/><path class="st1" d="M90.34,105.31c5.51,0,9.98-4.47,9.98-9.98V55.41c0-11,8.95-19.96,19.96-19.96h79.83   c11,0,19.96,8.95,19.96,19.96v39.92c0,5.51,4.47,9.98,9.98,9.98s9.98-4.47,9.98-9.98V55.41c0-22.01-17.91-39.92-39.92-39.92h-79.83   c-22.01,0-39.92,17.91-39.92,39.92v39.92C80.36,100.84,84.83,105.31,90.34,105.31z"/></g><g class="st0"><path class="st1" d="M474.06,209.21l-83.18,54.25c-1.37,0.89-2.49,2.1-3.28,3.53l-7.42,13.43l-30.57,19.94l-10.18-35.63   c-1.51-5.3-7.04-8.37-12.34-6.85c-5.3,1.51-8.37,7.04-6.85,12.34l13.88,48.58c0.01,0.03,0.02,0.06,0.02,0.08l1.31,4.58   l-30.73,22.87l-17.66-103.04c-0.93-5.43-6.09-9.08-11.52-8.15c-5.43,0.93-9.08,6.09-8.15,11.52l20,116.65   c-0.17,1.76,0.11,3.57,0.9,5.23l1.2,6.99c-3.44,6.15-13.11,22.5-32.42,48.77c-37.74-20.67-52.4-41.66-56.46-48.57l19.27-96.33   c1.08-5.4-2.42-10.66-7.83-11.74c-5.4-1.08-10.66,2.42-11.74,7.83l-13.54,67.7l-25.75-23.51l1.57-4.49   c0.01-0.02,0.01-0.03,0.02-0.05l12.01-34.4c1.82-5.2-0.93-10.89-6.13-12.71c-5.21-1.81-10.89,0.93-12.71,6.13l-7.41,21.23   l-10.47-8.05l-8.24-9.96c-0.64-0.77-1.4-1.45-2.24-2L25.94,209.21c-4.61-3.01-10.8-1.71-13.81,2.91   c-3.01,4.62-1.71,10.8,2.91,13.81l100.19,65.34l7.99,9.66c0.48,0.58,1.02,1.1,1.61,1.55l16.6,12.75l-1.43,4.08   c-1.32,3.77-0.26,7.96,2.69,10.66l39.5,36.06l-1.85,9.24c-0.39,1.96-0.19,3.98,0.58,5.82c0.59,1.41,15.2,34.91,74.55,64.92   c1.43,0.73,2.97,1.07,4.5,1.07c3.06,0,6.05-1.41,7.99-3.99c30.13-40.17,40.43-60.55,40.86-61.4c0.95-1.9,1.27-4.06,0.91-6.15   l-1.23-7.16l44.39-33.04c3.33-2.48,4.78-6.76,3.64-10.75l-1.19-4.15l37.82-24.66c1.37-0.89,2.49-2.1,3.28-3.53l7.42-13.43   l81.1-52.89c4.62-3.01,5.92-9.19,2.91-13.81C484.86,207.5,478.68,206.2,474.06,209.21z"/><path class="st1" d="M15.18,71.35l161.21,101.1c14.82,9.68,30.4,23.79,33.75,54.92c0.55,5.12,4.88,8.91,9.91,8.91   c0.36,0,0.72-0.02,1.08-0.06c5.48-0.59,9.44-5.51,8.86-10.99c-4.32-40.16-26.47-58.93-42.77-69.55c-0.05-0.03-0.1-0.06-0.15-0.1   L25.79,54.44c-4.67-2.93-10.83-1.52-13.76,3.15C9.1,62.26,10.51,68.42,15.18,71.35z"/><path class="st1" d="M278,214.6c1.29,0.56,2.63,0.82,3.96,0.82c3.86,0,7.53-2.25,9.16-6.02c4.14-9.58,10.74-17.93,19.1-24.18   L484.97,71.25c4.62-3.01,5.92-9.19,2.91-13.81c-3.01-4.62-9.19-5.91-13.81-2.91l-175,114.13c-0.17,0.11-0.33,0.22-0.48,0.34   c-11.29,8.35-20.2,19.58-25.78,32.47C270.61,206.53,272.94,212.41,278,214.6z"/></g></svg>