<svg width="20" height="20" viewBox="0 0 20 20" fill="none" xmlns="http://www.w3.org/2000/svg">
<path d="M2.2959 12.5543C2.07288 12.7708 2.06739 13.1267 2.28382 13.3497L4.44703 15.5794C4.44716 15.5796 4.44737 15.5796 4.44751 15.5798C4.54975 15.6856 4.69182 15.7525 4.85077 15.7525C5.00973 15.7525 5.1518 15.6856 5.25404 15.5798C5.25418 15.5796 5.25438 15.5796 5.25452 15.5794L7.41828 13.3497C7.63471 13.1267 7.62922 12.7708 7.40619 12.5543C7.18317 12.3379 6.82721 12.3434 6.61078 12.5664L5.41327 13.8006V4.81007C5.41327 4.49916 5.16169 4.24757 4.85077 4.24757C4.53986 4.24757 4.28827 4.49916 4.28827 4.81007V13.8004L3.09131 12.5664C2.87488 12.3434 2.51893 12.3379 2.2959 12.5543Z" fill="#46474A"/>
<path d="M16.1199 8.26912C16.1199 7.95821 15.8683 7.70662 15.5574 7.70662H9.45337C9.14246 7.70662 8.89087 7.95821 8.89087 8.26912C8.89087 8.58003 9.14246 8.83162 9.45337 8.83162H15.5574C15.8683 8.83162 16.1199 8.58003 16.1199 8.26912Z" fill="#46474A"/>
<path d="M14.3648 11.7287C14.3648 11.4178 14.1132 11.1662 13.8023 11.1662H9.45337C9.14246 11.1662 8.89087 11.4178 8.89087 11.7287C8.89087 12.0396 9.14246 12.2912 9.45337 12.2912H13.8023C14.1132 12.2912 14.3648 12.0396 14.3648 11.7287Z" fill="#46474A"/>
<path d="M9.45337 14.6275C9.14246 14.6275 8.89087 14.879 8.89087 15.19C8.89087 15.5009 9.14246 15.7525 9.45337 15.7525H12.0472C12.3582 15.7525 12.6097 15.5009 12.6097 15.19C12.6097 14.879 12.3582 14.6275 12.0472 14.6275H9.45337Z" fill="#46474A"/>
<path d="M17.3124 4.24757H9.45337C9.14246 4.24757 8.89087 4.49916 8.89087 4.81007C8.89087 5.12099 9.14246 5.37257 9.45337 5.37257H17.3124C17.6234 5.37257 17.8749 5.12099 17.8749 4.81007C17.8749 4.49916 17.6234 4.24757 17.3124 4.24757Z" fill="#46474A"/>
</svg>
